%TF.GenerationSoftware,KiCad,Pcbnew,9.0.6*%
%TF.CreationDate,2026-02-01T12:39:02+01:00*%
%TF.ProjectId,light_controller_base,6c696768-745f-4636-9f6e-74726f6c6c65,v2026.1*%
%TF.SameCoordinates,Original*%
%TF.FileFunction,Soldermask,Bot*%
%TF.FilePolarity,Negative*%
%FSLAX46Y46*%
G04 Gerber Fmt 4.6, Leading zero omitted, Abs format (unit mm)*
G04 Created by KiCad (PCBNEW 9.0.6) date 2026-02-01 12:39:02*
%MOMM*%
%LPD*%
G01*
G04 APERTURE LIST*
G04 Aperture macros list*
%AMRoundRect*
0 Rectangle with rounded corners*
0 $1 Rounding radius*
0 $2 $3 $4 $5 $6 $7 $8 $9 X,Y pos of 4 corners*
0 Add a 4 corners polygon primitive as box body*
4,1,4,$2,$3,$4,$5,$6,$7,$8,$9,$2,$3,0*
0 Add four circle primitives for the rounded corners*
1,1,$1+$1,$2,$3*
1,1,$1+$1,$4,$5*
1,1,$1+$1,$6,$7*
1,1,$1+$1,$8,$9*
0 Add four rect primitives between the rounded corners*
20,1,$1+$1,$2,$3,$4,$5,0*
20,1,$1+$1,$4,$5,$6,$7,0*
20,1,$1+$1,$6,$7,$8,$9,0*
20,1,$1+$1,$8,$9,$2,$3,0*%
G04 Aperture macros list end*
%ADD10R,1.700000X1.700000*%
%ADD11C,1.700000*%
%ADD12R,1.800000X1.800000*%
%ADD13C,1.800000*%
%ADD14C,3.600000*%
%ADD15C,5.600000*%
%ADD16RoundRect,0.250000X-0.350000X-0.625000X0.350000X-0.625000X0.350000X0.625000X-0.350000X0.625000X0*%
%ADD17O,1.200000X1.750000*%
%ADD18RoundRect,0.250000X0.625000X-0.350000X0.625000X0.350000X-0.625000X0.350000X-0.625000X-0.350000X0*%
%ADD19O,1.750000X1.200000*%
%ADD20C,0.650000*%
%ADD21O,1.000000X2.100000*%
%ADD22O,1.000000X1.800000*%
G04 APERTURE END LIST*
D10*
%TO.C,JP19*%
X147500000Y-114790000D03*
D11*
X147500000Y-112250000D03*
X147500000Y-109710000D03*
%TD*%
D12*
%TO.C,J7*%
X163095000Y-73125000D03*
D13*
X166905000Y-73125000D03*
%TD*%
D10*
%TO.C,JP10*%
X154500000Y-71040000D03*
D11*
X154500000Y-68500000D03*
X154500000Y-65960000D03*
%TD*%
D10*
%TO.C,JP7*%
X136725000Y-119500000D03*
D11*
X139265000Y-119500000D03*
%TD*%
D10*
%TO.C,JP17*%
X179500000Y-71775000D03*
D11*
X179500000Y-69235000D03*
%TD*%
D14*
%TO.C,H1*%
X130000000Y-125000000D03*
D15*
X130000000Y-125000000D03*
%TD*%
D16*
%TO.C,J4*%
X185000000Y-124500000D03*
D17*
X187000000Y-124500000D03*
X189000000Y-124500000D03*
X191000000Y-124500000D03*
%TD*%
D10*
%TO.C,JP3*%
X177000000Y-103500000D03*
D11*
X177000000Y-100960000D03*
%TD*%
D10*
%TO.C,JP22*%
X172500000Y-103500000D03*
D11*
X172500000Y-100960000D03*
%TD*%
D18*
%TO.C,J12*%
X199000000Y-69000000D03*
D19*
X199000000Y-67000000D03*
%TD*%
D10*
%TO.C,J6*%
X194725000Y-104650000D03*
D11*
X194725000Y-107190000D03*
X194725000Y-109730000D03*
X194725000Y-112270000D03*
X194725000Y-114810000D03*
X194725000Y-117350000D03*
X197265000Y-104650000D03*
X197265000Y-107190000D03*
X197265000Y-109730000D03*
X197265000Y-112270000D03*
X197265000Y-114810000D03*
X197265000Y-117350000D03*
%TD*%
D16*
%TO.C,J10*%
X137000000Y-124450000D03*
D17*
X139000000Y-124450000D03*
%TD*%
D14*
%TO.C,H2*%
X200000000Y-125000000D03*
D15*
X200000000Y-125000000D03*
%TD*%
D10*
%TO.C,JP1*%
X137500000Y-62225000D03*
D11*
X137500000Y-64765000D03*
%TD*%
D18*
%TO.C,J11*%
X130950000Y-64500000D03*
D19*
X130950000Y-62500000D03*
%TD*%
D10*
%TO.C,JP12*%
X160500000Y-57275000D03*
D11*
X160500000Y-54735000D03*
X163040000Y-57275000D03*
X163040000Y-54735000D03*
X165580000Y-57275000D03*
X165580000Y-54735000D03*
%TD*%
D16*
%TO.C,J2*%
X175000000Y-124500000D03*
D17*
X177000000Y-124500000D03*
%TD*%
D20*
%TO.C,J1*%
X162110000Y-129395000D03*
X167890000Y-129395000D03*
D21*
X160680000Y-128895000D03*
D22*
X160680000Y-133075000D03*
D21*
X169320000Y-128895000D03*
D22*
X169320000Y-133075000D03*
%TD*%
D10*
%TO.C,J5*%
X194725000Y-86650000D03*
D11*
X194725000Y-89190000D03*
X194725000Y-91730000D03*
X194725000Y-94270000D03*
X194725000Y-96810000D03*
X194725000Y-99350000D03*
X197265000Y-86650000D03*
X197265000Y-89190000D03*
X197265000Y-91730000D03*
X197265000Y-94270000D03*
X197265000Y-96810000D03*
X197265000Y-99350000D03*
%TD*%
D10*
%TO.C,JP13*%
X152225000Y-54725000D03*
D11*
X154765000Y-54725000D03*
X152225000Y-57265000D03*
X154765000Y-57265000D03*
%TD*%
D10*
%TO.C,JP18*%
X134181506Y-114575402D03*
D11*
X136721506Y-114575402D03*
X139261506Y-114575402D03*
%TD*%
D10*
%TO.C,JP8*%
X158000000Y-103500000D03*
D11*
X158000000Y-100960000D03*
X160540000Y-103500000D03*
X160540000Y-100960000D03*
X163080000Y-103500000D03*
X163080000Y-100960000D03*
%TD*%
D10*
%TO.C,JP14*%
X169460000Y-81500000D03*
D11*
X172000000Y-81500000D03*
X174540000Y-81500000D03*
%TD*%
D10*
%TO.C,JP11*%
X176540000Y-54725000D03*
D11*
X176540000Y-57265000D03*
X174000000Y-54725000D03*
X174000000Y-57265000D03*
X171460000Y-54725000D03*
X171460000Y-57265000D03*
%TD*%
D14*
%TO.C,H6*%
X150000000Y-90000000D03*
D15*
X150000000Y-90000000D03*
%TD*%
D10*
%TO.C,JP6*%
X154000000Y-120500000D03*
D11*
X156540000Y-120500000D03*
X154000000Y-123040000D03*
X156540000Y-123040000D03*
%TD*%
D10*
%TO.C,JP9*%
X154500000Y-81540000D03*
D11*
X154500000Y-79000000D03*
X154500000Y-76460000D03*
%TD*%
D10*
%TO.C,JP20*%
X132460000Y-81500000D03*
D11*
X135000000Y-81500000D03*
X137540000Y-81500000D03*
%TD*%
D14*
%TO.C,H5*%
X180000000Y-90000000D03*
D15*
X180000000Y-90000000D03*
%TD*%
D18*
%TO.C,J9*%
X130950000Y-75000000D03*
D19*
X130950000Y-73000000D03*
X130950000Y-71000000D03*
%TD*%
D10*
%TO.C,JP16*%
X174500000Y-71775000D03*
D11*
X174500000Y-69235000D03*
%TD*%
D14*
%TO.C,H4*%
X130000000Y-55000000D03*
D15*
X130000000Y-55000000D03*
%TD*%
D10*
%TO.C,JP15*%
X200775000Y-61000000D03*
D11*
X198235000Y-61000000D03*
%TD*%
D16*
%TO.C,J3*%
X145500000Y-124450000D03*
D17*
X147500000Y-124450000D03*
%TD*%
D10*
%TO.C,JP21*%
X168000000Y-109725000D03*
D11*
X168000000Y-112265000D03*
%TD*%
D18*
%TO.C,J8*%
X198964813Y-79491112D03*
D19*
X198964813Y-77491112D03*
X198964813Y-75491112D03*
%TD*%
D14*
%TO.C,H3*%
X200000000Y-55000000D03*
D15*
X200000000Y-55000000D03*
%TD*%
M02*
