%TF.GenerationSoftware,KiCad,Pcbnew,9.0.6*%
%TF.CreationDate,2026-02-01T12:39:02+01:00*%
%TF.ProjectId,light_controller_base,6c696768-745f-4636-9f6e-74726f6c6c65,v2026.1*%
%TF.SameCoordinates,Original*%
%TF.FileFunction,Legend,Bot*%
%TF.FilePolarity,Positive*%
%FSLAX46Y46*%
G04 Gerber Fmt 4.6, Leading zero omitted, Abs format (unit mm)*
G04 Created by KiCad (PCBNEW 9.0.6) date 2026-02-01 12:39:02*
%MOMM*%
%LPD*%
G01*
G04 APERTURE LIST*
G04 Aperture macros list*
%AMRoundRect*
0 Rectangle with rounded corners*
0 $1 Rounding radius*
0 $2 $3 $4 $5 $6 $7 $8 $9 X,Y pos of 4 corners*
0 Add a 4 corners polygon primitive as box body*
4,1,4,$2,$3,$4,$5,$6,$7,$8,$9,$2,$3,0*
0 Add four circle primitives for the rounded corners*
1,1,$1+$1,$2,$3*
1,1,$1+$1,$4,$5*
1,1,$1+$1,$6,$7*
1,1,$1+$1,$8,$9*
0 Add four rect primitives between the rounded corners*
20,1,$1+$1,$2,$3,$4,$5,0*
20,1,$1+$1,$4,$5,$6,$7,0*
20,1,$1+$1,$6,$7,$8,$9,0*
20,1,$1+$1,$8,$9,$2,$3,0*%
G04 Aperture macros list end*
%ADD10C,2.000000*%
%ADD11C,0.800000*%
%ADD12C,0.200000*%
%ADD13C,1.000000*%
%ADD14C,1.500000*%
%ADD15C,0.400000*%
%ADD16C,0.600000*%
%ADD17C,0.150000*%
%ADD18C,0.000000*%
%ADD19R,1.700000X1.700000*%
%ADD20C,1.700000*%
%ADD21R,1.800000X1.800000*%
%ADD22C,1.800000*%
%ADD23C,3.600000*%
%ADD24C,5.600000*%
%ADD25RoundRect,0.250000X-0.350000X-0.625000X0.350000X-0.625000X0.350000X0.625000X-0.350000X0.625000X0*%
%ADD26O,1.200000X1.750000*%
%ADD27RoundRect,0.250000X0.625000X-0.350000X0.625000X0.350000X-0.625000X0.350000X-0.625000X-0.350000X0*%
%ADD28O,1.750000X1.200000*%
%ADD29C,0.650000*%
%ADD30O,1.000000X2.100000*%
%ADD31O,1.000000X1.800000*%
G04 APERTURE END LIST*
D10*
X195000000Y-90000000D02*
G75*
G02*
X135000000Y-90000000I-30000000J0D01*
G01*
X135000000Y-90000000D02*
G75*
G02*
X195000000Y-90000000I30000000J0D01*
G01*
D11*
X184200000Y-90000000D02*
G75*
G02*
X145800000Y-90000000I-19200000J0D01*
G01*
X145800000Y-90000000D02*
G75*
G02*
X184200000Y-90000000I19200000J0D01*
G01*
D12*
X179700000Y-52000000D02*
X195400000Y-52000000D01*
X195400000Y-58400000D01*
X179700000Y-58400000D01*
X179700000Y-52000000D01*
D13*
X187500000Y-90000000D02*
G75*
G02*
X142500000Y-90000000I-22500000J0D01*
G01*
X142500000Y-90000000D02*
G75*
G02*
X187500000Y-90000000I22500000J0D01*
G01*
D14*
X191000000Y-90000000D02*
G75*
G02*
X139000000Y-90000000I-26000000J0D01*
G01*
X139000000Y-90000000D02*
G75*
G02*
X191000000Y-90000000I26000000J0D01*
G01*
D15*
X178500000Y-90000000D02*
G75*
G02*
X151500000Y-90000000I-13500000J0D01*
G01*
X151500000Y-90000000D02*
G75*
G02*
X178500000Y-90000000I13500000J0D01*
G01*
D16*
X181200000Y-90000000D02*
G75*
G02*
X148800000Y-90000000I-16200000J0D01*
G01*
X148800000Y-90000000D02*
G75*
G02*
X181200000Y-90000000I16200000J0D01*
G01*
D17*
X149234649Y-58203152D02*
X149234649Y-59012676D01*
X149234649Y-59012676D02*
X149282268Y-59107914D01*
X149282268Y-59107914D02*
X149329887Y-59155533D01*
X149329887Y-59155533D02*
X149425125Y-59203152D01*
X149425125Y-59203152D02*
X149567982Y-59203152D01*
X149567982Y-59203152D02*
X149663220Y-59155533D01*
X149234649Y-58822200D02*
X149329887Y-58869819D01*
X149329887Y-58869819D02*
X149520363Y-58869819D01*
X149520363Y-58869819D02*
X149615601Y-58822200D01*
X149615601Y-58822200D02*
X149663220Y-58774580D01*
X149663220Y-58774580D02*
X149710839Y-58679342D01*
X149710839Y-58679342D02*
X149710839Y-58393628D01*
X149710839Y-58393628D02*
X149663220Y-58298390D01*
X149663220Y-58298390D02*
X149615601Y-58250771D01*
X149615601Y-58250771D02*
X149520363Y-58203152D01*
X149520363Y-58203152D02*
X149329887Y-58203152D01*
X149329887Y-58203152D02*
X149234649Y-58250771D01*
X148758458Y-58869819D02*
X148758458Y-58203152D01*
X148758458Y-57869819D02*
X148806077Y-57917438D01*
X148806077Y-57917438D02*
X148758458Y-57965057D01*
X148758458Y-57965057D02*
X148710839Y-57917438D01*
X148710839Y-57917438D02*
X148758458Y-57869819D01*
X148758458Y-57869819D02*
X148758458Y-57965057D01*
X148425125Y-58203152D02*
X148044173Y-58203152D01*
X148282268Y-57869819D02*
X148282268Y-58726961D01*
X148282268Y-58726961D02*
X148234649Y-58822200D01*
X148234649Y-58822200D02*
X148139411Y-58869819D01*
X148139411Y-58869819D02*
X148044173Y-58869819D01*
X147710839Y-58869819D02*
X147710839Y-57869819D01*
X147282268Y-58869819D02*
X147282268Y-58346009D01*
X147282268Y-58346009D02*
X147329887Y-58250771D01*
X147329887Y-58250771D02*
X147425125Y-58203152D01*
X147425125Y-58203152D02*
X147567982Y-58203152D01*
X147567982Y-58203152D02*
X147663220Y-58250771D01*
X147663220Y-58250771D02*
X147710839Y-58298390D01*
X146377506Y-58203152D02*
X146377506Y-58869819D01*
X146806077Y-58203152D02*
X146806077Y-58726961D01*
X146806077Y-58726961D02*
X146758458Y-58822200D01*
X146758458Y-58822200D02*
X146663220Y-58869819D01*
X146663220Y-58869819D02*
X146520363Y-58869819D01*
X146520363Y-58869819D02*
X146425125Y-58822200D01*
X146425125Y-58822200D02*
X146377506Y-58774580D01*
X145901315Y-58869819D02*
X145901315Y-57869819D01*
X145901315Y-58250771D02*
X145806077Y-58203152D01*
X145806077Y-58203152D02*
X145615601Y-58203152D01*
X145615601Y-58203152D02*
X145520363Y-58250771D01*
X145520363Y-58250771D02*
X145472744Y-58298390D01*
X145472744Y-58298390D02*
X145425125Y-58393628D01*
X145425125Y-58393628D02*
X145425125Y-58679342D01*
X145425125Y-58679342D02*
X145472744Y-58774580D01*
X145472744Y-58774580D02*
X145520363Y-58822200D01*
X145520363Y-58822200D02*
X145615601Y-58869819D01*
X145615601Y-58869819D02*
X145806077Y-58869819D01*
X145806077Y-58869819D02*
X145901315Y-58822200D01*
X144996553Y-58774580D02*
X144948934Y-58822200D01*
X144948934Y-58822200D02*
X144996553Y-58869819D01*
X144996553Y-58869819D02*
X145044172Y-58822200D01*
X145044172Y-58822200D02*
X144996553Y-58774580D01*
X144996553Y-58774580D02*
X144996553Y-58869819D01*
X144091792Y-58822200D02*
X144187030Y-58869819D01*
X144187030Y-58869819D02*
X144377506Y-58869819D01*
X144377506Y-58869819D02*
X144472744Y-58822200D01*
X144472744Y-58822200D02*
X144520363Y-58774580D01*
X144520363Y-58774580D02*
X144567982Y-58679342D01*
X144567982Y-58679342D02*
X144567982Y-58393628D01*
X144567982Y-58393628D02*
X144520363Y-58298390D01*
X144520363Y-58298390D02*
X144472744Y-58250771D01*
X144472744Y-58250771D02*
X144377506Y-58203152D01*
X144377506Y-58203152D02*
X144187030Y-58203152D01*
X144187030Y-58203152D02*
X144091792Y-58250771D01*
X143520363Y-58869819D02*
X143615601Y-58822200D01*
X143615601Y-58822200D02*
X143663220Y-58774580D01*
X143663220Y-58774580D02*
X143710839Y-58679342D01*
X143710839Y-58679342D02*
X143710839Y-58393628D01*
X143710839Y-58393628D02*
X143663220Y-58298390D01*
X143663220Y-58298390D02*
X143615601Y-58250771D01*
X143615601Y-58250771D02*
X143520363Y-58203152D01*
X143520363Y-58203152D02*
X143377506Y-58203152D01*
X143377506Y-58203152D02*
X143282268Y-58250771D01*
X143282268Y-58250771D02*
X143234649Y-58298390D01*
X143234649Y-58298390D02*
X143187030Y-58393628D01*
X143187030Y-58393628D02*
X143187030Y-58679342D01*
X143187030Y-58679342D02*
X143234649Y-58774580D01*
X143234649Y-58774580D02*
X143282268Y-58822200D01*
X143282268Y-58822200D02*
X143377506Y-58869819D01*
X143377506Y-58869819D02*
X143520363Y-58869819D01*
X142758458Y-58869819D02*
X142758458Y-58203152D01*
X142758458Y-58298390D02*
X142710839Y-58250771D01*
X142710839Y-58250771D02*
X142615601Y-58203152D01*
X142615601Y-58203152D02*
X142472744Y-58203152D01*
X142472744Y-58203152D02*
X142377506Y-58250771D01*
X142377506Y-58250771D02*
X142329887Y-58346009D01*
X142329887Y-58346009D02*
X142329887Y-58869819D01*
X142329887Y-58346009D02*
X142282268Y-58250771D01*
X142282268Y-58250771D02*
X142187030Y-58203152D01*
X142187030Y-58203152D02*
X142044173Y-58203152D01*
X142044173Y-58203152D02*
X141948934Y-58250771D01*
X141948934Y-58250771D02*
X141901315Y-58346009D01*
X141901315Y-58346009D02*
X141901315Y-58869819D01*
X140710840Y-57822200D02*
X141567982Y-59107914D01*
X140377506Y-58869819D02*
X140377506Y-57869819D01*
X140377506Y-57869819D02*
X140044173Y-58584104D01*
X140044173Y-58584104D02*
X139710840Y-57869819D01*
X139710840Y-57869819D02*
X139710840Y-58869819D01*
X138806078Y-58203152D02*
X138806078Y-58869819D01*
X139044173Y-57822200D02*
X139282268Y-58536485D01*
X139282268Y-58536485D02*
X138663221Y-58536485D01*
X137758459Y-58869819D02*
X138329887Y-58869819D01*
X138044173Y-58869819D02*
X138044173Y-57869819D01*
X138044173Y-57869819D02*
X138139411Y-58012676D01*
X138139411Y-58012676D02*
X138234649Y-58107914D01*
X138234649Y-58107914D02*
X138329887Y-58155533D01*
X137472744Y-57869819D02*
X136901316Y-57869819D01*
X137187030Y-58869819D02*
X137187030Y-57869819D01*
X136663220Y-57869819D02*
X136044173Y-57869819D01*
X136044173Y-57869819D02*
X136377506Y-58250771D01*
X136377506Y-58250771D02*
X136234649Y-58250771D01*
X136234649Y-58250771D02*
X136139411Y-58298390D01*
X136139411Y-58298390D02*
X136091792Y-58346009D01*
X136091792Y-58346009D02*
X136044173Y-58441247D01*
X136044173Y-58441247D02*
X136044173Y-58679342D01*
X136044173Y-58679342D02*
X136091792Y-58774580D01*
X136091792Y-58774580D02*
X136139411Y-58822200D01*
X136139411Y-58822200D02*
X136234649Y-58869819D01*
X136234649Y-58869819D02*
X136520363Y-58869819D01*
X136520363Y-58869819D02*
X136615601Y-58822200D01*
X136615601Y-58822200D02*
X136663220Y-58774580D01*
G36*
X193680704Y-56171793D02*
G01*
X194475959Y-56171793D01*
X194475959Y-56672002D01*
X193811863Y-56672002D01*
X193725645Y-56683868D01*
X193670446Y-56714867D01*
X193635547Y-56763911D01*
X193623429Y-56829050D01*
X193635724Y-56893914D01*
X193671179Y-56942501D01*
X193726655Y-56973014D01*
X193811863Y-56984633D01*
X194475959Y-56984633D01*
X194475959Y-57640181D01*
X194483423Y-57723146D01*
X194503417Y-57784472D01*
X194533845Y-57829347D01*
X194575753Y-57863602D01*
X194624466Y-57884136D01*
X194682100Y-57891263D01*
X194740597Y-57884056D01*
X194789771Y-57863339D01*
X194831821Y-57828859D01*
X194862265Y-57783650D01*
X194882181Y-57722554D01*
X194889584Y-57640669D01*
X194889584Y-56103283D01*
X194882373Y-56019921D01*
X194863206Y-55959057D01*
X194829226Y-55910392D01*
X194780408Y-55877114D01*
X194719501Y-55858369D01*
X194637037Y-55851346D01*
X193680704Y-55851346D01*
X193590746Y-55863598D01*
X193533792Y-55895432D01*
X193497795Y-55945679D01*
X193485432Y-56010837D01*
X193497861Y-56077257D01*
X193533792Y-56127707D01*
X193590746Y-56159541D01*
X193680704Y-56171793D01*
G37*
G36*
X192785799Y-56063227D02*
G01*
X192785799Y-57523921D01*
X191967341Y-57523921D01*
X191875736Y-57537030D01*
X191813712Y-57572159D01*
X191773360Y-57626415D01*
X191759856Y-57693304D01*
X191773336Y-57761164D01*
X191812979Y-57813960D01*
X191874453Y-57847358D01*
X191967341Y-57860000D01*
X192946877Y-57860000D01*
X193034359Y-57852099D01*
X193096643Y-57831269D01*
X193140195Y-57800038D01*
X193171083Y-57756129D01*
X193191646Y-57693883D01*
X193199424Y-57607086D01*
X193199424Y-56062494D01*
X193192194Y-55981162D01*
X193172733Y-55920267D01*
X193143004Y-55875038D01*
X193101818Y-55840397D01*
X193053130Y-55819545D01*
X192994626Y-55812267D01*
X192935230Y-55819501D01*
X192885681Y-55840216D01*
X192843684Y-55874549D01*
X192813219Y-55919560D01*
X192793242Y-55980766D01*
X192785799Y-56063227D01*
G37*
G36*
X190177407Y-56171793D02*
G01*
X191087456Y-56171793D01*
X191087456Y-56656371D01*
X190249825Y-56656371D01*
X190163584Y-56668176D01*
X190108408Y-56698991D01*
X190073437Y-56747699D01*
X190061392Y-56811343D01*
X190073230Y-56875284D01*
X190107676Y-56925038D01*
X190162549Y-56956790D01*
X190249825Y-56969002D01*
X191087456Y-56969002D01*
X191087456Y-57531737D01*
X190146022Y-57531737D01*
X190057145Y-57544193D01*
X189999110Y-57577044D01*
X189962192Y-57628816D01*
X189949406Y-57697212D01*
X189962068Y-57763314D01*
X189999110Y-57814815D01*
X190057133Y-57847574D01*
X190146022Y-57860000D01*
X191248534Y-57860000D01*
X191336029Y-57852112D01*
X191398311Y-57831322D01*
X191441852Y-57800160D01*
X191472750Y-57756332D01*
X191493307Y-57694239D01*
X191501081Y-57607697D01*
X191501081Y-56103649D01*
X191493870Y-56020164D01*
X191474703Y-55959180D01*
X191440727Y-55910488D01*
X191391905Y-55877114D01*
X191330998Y-55858369D01*
X191248534Y-55851346D01*
X190177407Y-55851346D01*
X190087556Y-55863594D01*
X190030617Y-55895432D01*
X189994620Y-55945679D01*
X189982257Y-56010837D01*
X189994685Y-56077257D01*
X190030617Y-56127707D01*
X190087556Y-56159545D01*
X190177407Y-56171793D01*
G37*
G36*
X189708094Y-57463227D02*
G01*
X189261496Y-56813297D01*
X189637142Y-56231144D01*
X189717498Y-56084354D01*
X189737915Y-56022710D01*
X189744364Y-55965652D01*
X189731855Y-55910683D01*
X189691974Y-55859406D01*
X189634305Y-55824246D01*
X189564235Y-55812267D01*
X189485564Y-55825747D01*
X189429902Y-55863314D01*
X189379761Y-55926371D01*
X189298621Y-56050893D01*
X189001256Y-56535715D01*
X188683496Y-56050893D01*
X188615840Y-55944769D01*
X188561374Y-55871252D01*
X188502145Y-55827166D01*
X188467577Y-55816160D01*
X188426186Y-55812267D01*
X188354077Y-55824460D01*
X188298447Y-55859406D01*
X188260991Y-55911253D01*
X188248743Y-55971147D01*
X188257755Y-56031136D01*
X188289790Y-56112700D01*
X188354501Y-56223084D01*
X188747976Y-56813419D01*
X188324459Y-57463227D01*
X188240806Y-57606231D01*
X188220779Y-57663193D01*
X188214549Y-57714431D01*
X188220562Y-57761395D01*
X188238363Y-57803702D01*
X188266746Y-57839605D01*
X188305408Y-57867571D01*
X188350813Y-57885199D01*
X188402861Y-57891263D01*
X188458185Y-57884851D01*
X188501779Y-57866960D01*
X188538638Y-57839499D01*
X188567114Y-57806877D01*
X188658949Y-57668757D01*
X189008217Y-57120799D01*
X189379221Y-57685122D01*
X189441503Y-57780743D01*
X189486444Y-57834476D01*
X189549092Y-57875997D01*
X189587313Y-57887239D01*
X189633967Y-57891263D01*
X189703757Y-57879436D01*
X189759019Y-57845223D01*
X189795352Y-57791079D01*
X189808600Y-57711744D01*
X189799455Y-57646170D01*
X189768385Y-57564902D01*
X189708094Y-57463227D01*
G37*
G36*
X186265858Y-57221671D02*
G01*
X186277042Y-57318825D01*
X186313363Y-57429888D01*
X186372449Y-57537941D01*
X186462351Y-57649340D01*
X186534433Y-57715128D01*
X186620312Y-57773415D01*
X186721737Y-57824096D01*
X186829010Y-57860440D01*
X186950809Y-57883262D01*
X187089445Y-57891263D01*
X187244490Y-57883414D01*
X187378750Y-57861221D01*
X187504193Y-57822504D01*
X187615544Y-57767920D01*
X187716424Y-57695382D01*
X187811060Y-57600736D01*
X187884446Y-57500864D01*
X187946981Y-57388489D01*
X187995913Y-57267880D01*
X188031245Y-57138140D01*
X188052146Y-57002582D01*
X188059333Y-56855551D01*
X188051017Y-56694856D01*
X188027097Y-56550563D01*
X187988747Y-56420676D01*
X187933977Y-56297093D01*
X187866527Y-56187962D01*
X187786270Y-56091803D01*
X187693332Y-56007891D01*
X187590757Y-55938732D01*
X187477547Y-55883709D01*
X187357787Y-55844222D01*
X187232454Y-55820349D01*
X187100436Y-55812267D01*
X186939964Y-55823602D01*
X186795818Y-55856381D01*
X186665439Y-55909598D01*
X186544409Y-55982281D01*
X186448037Y-56062578D01*
X186373080Y-56150544D01*
X186313970Y-56249879D01*
X186281536Y-56339599D01*
X186271353Y-56422264D01*
X186283801Y-56488951D01*
X186321667Y-56547927D01*
X186377448Y-56588808D01*
X186443300Y-56602271D01*
X186515679Y-56591892D01*
X186562491Y-56564535D01*
X186600676Y-56518712D01*
X186650296Y-56435819D01*
X186708642Y-56341310D01*
X186770351Y-56268420D01*
X186835432Y-56213925D01*
X186909538Y-56174075D01*
X186995994Y-56149266D01*
X187097627Y-56140530D01*
X187217626Y-56152831D01*
X187321464Y-56188255D01*
X187412559Y-56246481D01*
X187493056Y-56329696D01*
X187553720Y-56426703D01*
X187599691Y-56545687D01*
X187629463Y-56691095D01*
X187640212Y-56868251D01*
X187632084Y-57023286D01*
X187609587Y-57151229D01*
X187575000Y-57256353D01*
X187523741Y-57353367D01*
X187462349Y-57429204D01*
X187390596Y-57486919D01*
X187308156Y-57528585D01*
X187215799Y-57554142D01*
X187111304Y-57563000D01*
X186998304Y-57552817D01*
X186901519Y-57523765D01*
X186817847Y-57476782D01*
X186746325Y-57412345D01*
X186685991Y-57328923D01*
X186636863Y-57223136D01*
X186606376Y-57148091D01*
X186571772Y-57092100D01*
X186542079Y-57064782D01*
X186501393Y-57047447D01*
X186445987Y-57041053D01*
X186377252Y-57054021D01*
X186318981Y-57092955D01*
X186279264Y-57150720D01*
X186265858Y-57221671D01*
G37*
G36*
X185211168Y-55820747D02*
G01*
X185347633Y-55845143D01*
X185470359Y-55884319D01*
X185586067Y-55940061D01*
X185688067Y-56009253D01*
X185777739Y-56092292D01*
X185854258Y-56187735D01*
X185918542Y-56296927D01*
X185970568Y-56421531D01*
X186006900Y-56551980D01*
X186029301Y-56693097D01*
X186037002Y-56846270D01*
X186029676Y-56995924D01*
X186008239Y-57135790D01*
X185973255Y-57266978D01*
X185923018Y-57392499D01*
X185860119Y-57503091D01*
X185784577Y-57600369D01*
X185695482Y-57684994D01*
X185592190Y-57756510D01*
X185473046Y-57815181D01*
X185346516Y-57856611D01*
X185206431Y-57882339D01*
X185050750Y-57891263D01*
X184893974Y-57882514D01*
X184754406Y-57857421D01*
X184629797Y-57817257D01*
X184512483Y-57759877D01*
X184409575Y-57688662D01*
X184319609Y-57603178D01*
X184243061Y-57505081D01*
X184180017Y-57395301D01*
X184130321Y-57272473D01*
X184095910Y-57143919D01*
X184074562Y-57003291D01*
X184067184Y-56849078D01*
X184067369Y-56846270D01*
X184486304Y-56846270D01*
X184495714Y-57003310D01*
X184522038Y-57135226D01*
X184563119Y-57245973D01*
X184622147Y-57347475D01*
X184690792Y-57426286D01*
X184769382Y-57485575D01*
X184858345Y-57528540D01*
X184952510Y-57554282D01*
X185053436Y-57563000D01*
X185170478Y-57551550D01*
X185275209Y-57518182D01*
X185369604Y-57462593D01*
X185454239Y-57382871D01*
X185521949Y-57283271D01*
X185575017Y-57154626D01*
X185606707Y-57011917D01*
X185617882Y-56846270D01*
X185606688Y-56682081D01*
X185575017Y-56541454D01*
X185522761Y-56414826D01*
X185458269Y-56318705D01*
X185377065Y-56241857D01*
X185282048Y-56186081D01*
X185176126Y-56152128D01*
X185058932Y-56140530D01*
X184948248Y-56150011D01*
X184848776Y-56177569D01*
X184758391Y-56222840D01*
X184679155Y-56285067D01*
X184612145Y-56365171D01*
X184556891Y-56465861D01*
X184518826Y-56575197D01*
X184494782Y-56701081D01*
X184486304Y-56846270D01*
X184067369Y-56846270D01*
X184080870Y-56641596D01*
X184119954Y-56459915D01*
X184182466Y-56300143D01*
X184247474Y-56189046D01*
X184325266Y-56092664D01*
X184416413Y-56009659D01*
X184522086Y-55939274D01*
X184635822Y-55885243D01*
X184761969Y-55845578D01*
X184902317Y-55820861D01*
X185058932Y-55812267D01*
X185211168Y-55820747D01*
G37*
G36*
X183565005Y-55859188D02*
G01*
X183627186Y-55879942D01*
X183671144Y-55911186D01*
X183702391Y-55954990D01*
X183723143Y-56016970D01*
X183730983Y-56103283D01*
X183730983Y-57640669D01*
X183724066Y-57720851D01*
X183705371Y-57781628D01*
X183676762Y-57827393D01*
X183636584Y-57862253D01*
X183586509Y-57883644D01*
X183523499Y-57891263D01*
X183464950Y-57884143D01*
X183416079Y-57863752D01*
X183374633Y-57829958D01*
X183344696Y-57785494D01*
X183324905Y-57724015D01*
X183317480Y-57640059D01*
X183317480Y-57000265D01*
X183179239Y-57000265D01*
X183077243Y-57008041D01*
X183001796Y-57028719D01*
X182934802Y-57067212D01*
X182863066Y-57134476D01*
X182794866Y-57222362D01*
X182707240Y-57360401D01*
X182544574Y-57631022D01*
X182453471Y-57776346D01*
X182416171Y-57821924D01*
X182372505Y-57858656D01*
X182321097Y-57882712D01*
X182255757Y-57891263D01*
X182199858Y-57885303D01*
X182152808Y-57868304D01*
X182112679Y-57840899D01*
X182082344Y-57805411D01*
X182062673Y-57764497D01*
X182056454Y-57724811D01*
X182064580Y-57679121D01*
X182099685Y-57583517D01*
X182149183Y-57479448D01*
X182220341Y-57354539D01*
X182302905Y-57231582D01*
X182396318Y-57115547D01*
X182498807Y-57014973D01*
X182594155Y-56950439D01*
X182434551Y-56902478D01*
X182311885Y-56839264D01*
X182219242Y-56762372D01*
X182164873Y-56691829D01*
X182125333Y-56610060D01*
X182100590Y-56514916D01*
X182093955Y-56430202D01*
X182510990Y-56430202D01*
X182517376Y-56497995D01*
X182535020Y-56551605D01*
X182562770Y-56594089D01*
X182623746Y-56643416D01*
X182713346Y-56678353D01*
X182818208Y-56696435D01*
X182957955Y-56703265D01*
X183317480Y-56703265D01*
X183317480Y-56163977D01*
X182947086Y-56163977D01*
X182755982Y-56173416D01*
X182668405Y-56193653D01*
X182601999Y-56232577D01*
X182552756Y-56286465D01*
X182521656Y-56352712D01*
X182510990Y-56430202D01*
X182093955Y-56430202D01*
X182091870Y-56403579D01*
X182101461Y-56296410D01*
X182129849Y-56196095D01*
X182176566Y-56104035D01*
X182240736Y-56024148D01*
X182319239Y-55958653D01*
X182408531Y-55910453D01*
X182490279Y-55881100D01*
X182584385Y-55863070D01*
X182818614Y-55851346D01*
X183478436Y-55851346D01*
X183565005Y-55859188D01*
G37*
G36*
X180392062Y-56171793D02*
G01*
X181302110Y-56171793D01*
X181302110Y-56656371D01*
X180464480Y-56656371D01*
X180378238Y-56668176D01*
X180323063Y-56698991D01*
X180288092Y-56747699D01*
X180276046Y-56811343D01*
X180287884Y-56875284D01*
X180322330Y-56925038D01*
X180377204Y-56956790D01*
X180464480Y-56969002D01*
X181302110Y-56969002D01*
X181302110Y-57531737D01*
X180360676Y-57531737D01*
X180271799Y-57544193D01*
X180213764Y-57577044D01*
X180176847Y-57628816D01*
X180164061Y-57697212D01*
X180176722Y-57763314D01*
X180213764Y-57814815D01*
X180271787Y-57847574D01*
X180360676Y-57860000D01*
X181463189Y-57860000D01*
X181550683Y-57852112D01*
X181612965Y-57831322D01*
X181656507Y-57800160D01*
X181687404Y-57756332D01*
X181707962Y-57694239D01*
X181715736Y-57607697D01*
X181715736Y-56103649D01*
X181708525Y-56020164D01*
X181689357Y-55959180D01*
X181655382Y-55910488D01*
X181606559Y-55877114D01*
X181545652Y-55858369D01*
X181463189Y-55851346D01*
X180392062Y-55851346D01*
X180302211Y-55863594D01*
X180245272Y-55895432D01*
X180209275Y-55945679D01*
X180196912Y-56010837D01*
X180209340Y-56077257D01*
X180245272Y-56127707D01*
X180302211Y-56159545D01*
X180392062Y-56171793D01*
G37*
D12*
X195404136Y-60306028D02*
X195046993Y-61306028D01*
X195046993Y-61306028D02*
X194689850Y-60306028D01*
X194189850Y-59948885D02*
X194118422Y-59877457D01*
X194118422Y-59877457D02*
X193975565Y-59806028D01*
X193975565Y-59806028D02*
X193618422Y-59806028D01*
X193618422Y-59806028D02*
X193475565Y-59877457D01*
X193475565Y-59877457D02*
X193404136Y-59948885D01*
X193404136Y-59948885D02*
X193332707Y-60091742D01*
X193332707Y-60091742D02*
X193332707Y-60234600D01*
X193332707Y-60234600D02*
X193404136Y-60448885D01*
X193404136Y-60448885D02*
X194261279Y-61306028D01*
X194261279Y-61306028D02*
X193332707Y-61306028D01*
X192404136Y-59806028D02*
X192261279Y-59806028D01*
X192261279Y-59806028D02*
X192118422Y-59877457D01*
X192118422Y-59877457D02*
X192046994Y-59948885D01*
X192046994Y-59948885D02*
X191975565Y-60091742D01*
X191975565Y-60091742D02*
X191904136Y-60377457D01*
X191904136Y-60377457D02*
X191904136Y-60734600D01*
X191904136Y-60734600D02*
X191975565Y-61020314D01*
X191975565Y-61020314D02*
X192046994Y-61163171D01*
X192046994Y-61163171D02*
X192118422Y-61234600D01*
X192118422Y-61234600D02*
X192261279Y-61306028D01*
X192261279Y-61306028D02*
X192404136Y-61306028D01*
X192404136Y-61306028D02*
X192546994Y-61234600D01*
X192546994Y-61234600D02*
X192618422Y-61163171D01*
X192618422Y-61163171D02*
X192689851Y-61020314D01*
X192689851Y-61020314D02*
X192761279Y-60734600D01*
X192761279Y-60734600D02*
X192761279Y-60377457D01*
X192761279Y-60377457D02*
X192689851Y-60091742D01*
X192689851Y-60091742D02*
X192618422Y-59948885D01*
X192618422Y-59948885D02*
X192546994Y-59877457D01*
X192546994Y-59877457D02*
X192404136Y-59806028D01*
X191332708Y-59948885D02*
X191261280Y-59877457D01*
X191261280Y-59877457D02*
X191118423Y-59806028D01*
X191118423Y-59806028D02*
X190761280Y-59806028D01*
X190761280Y-59806028D02*
X190618423Y-59877457D01*
X190618423Y-59877457D02*
X190546994Y-59948885D01*
X190546994Y-59948885D02*
X190475565Y-60091742D01*
X190475565Y-60091742D02*
X190475565Y-60234600D01*
X190475565Y-60234600D02*
X190546994Y-60448885D01*
X190546994Y-60448885D02*
X191404137Y-61306028D01*
X191404137Y-61306028D02*
X190475565Y-61306028D01*
X189189852Y-59806028D02*
X189475566Y-59806028D01*
X189475566Y-59806028D02*
X189618423Y-59877457D01*
X189618423Y-59877457D02*
X189689852Y-59948885D01*
X189689852Y-59948885D02*
X189832709Y-60163171D01*
X189832709Y-60163171D02*
X189904137Y-60448885D01*
X189904137Y-60448885D02*
X189904137Y-61020314D01*
X189904137Y-61020314D02*
X189832709Y-61163171D01*
X189832709Y-61163171D02*
X189761280Y-61234600D01*
X189761280Y-61234600D02*
X189618423Y-61306028D01*
X189618423Y-61306028D02*
X189332709Y-61306028D01*
X189332709Y-61306028D02*
X189189852Y-61234600D01*
X189189852Y-61234600D02*
X189118423Y-61163171D01*
X189118423Y-61163171D02*
X189046994Y-61020314D01*
X189046994Y-61020314D02*
X189046994Y-60663171D01*
X189046994Y-60663171D02*
X189118423Y-60520314D01*
X189118423Y-60520314D02*
X189189852Y-60448885D01*
X189189852Y-60448885D02*
X189332709Y-60377457D01*
X189332709Y-60377457D02*
X189618423Y-60377457D01*
X189618423Y-60377457D02*
X189761280Y-60448885D01*
X189761280Y-60448885D02*
X189832709Y-60520314D01*
X189832709Y-60520314D02*
X189904137Y-60663171D01*
X188404138Y-61163171D02*
X188332709Y-61234600D01*
X188332709Y-61234600D02*
X188404138Y-61306028D01*
X188404138Y-61306028D02*
X188475566Y-61234600D01*
X188475566Y-61234600D02*
X188404138Y-61163171D01*
X188404138Y-61163171D02*
X188404138Y-61306028D01*
X186904137Y-61306028D02*
X187761280Y-61306028D01*
X187332709Y-61306028D02*
X187332709Y-59806028D01*
X187332709Y-59806028D02*
X187475566Y-60020314D01*
X187475566Y-60020314D02*
X187618423Y-60163171D01*
X187618423Y-60163171D02*
X187761280Y-60234600D01*
D17*
G36*
X194787989Y-54343673D02*
G01*
X194787989Y-52985601D01*
X194777798Y-52871161D01*
X194750362Y-52785465D01*
X194708437Y-52721804D01*
X194650365Y-52672960D01*
X194581714Y-52643559D01*
X194499224Y-52633297D01*
X194412941Y-52643711D01*
X194342535Y-52673255D01*
X194284330Y-52721804D01*
X194242404Y-52785574D01*
X194214968Y-52871385D01*
X194204777Y-52985945D01*
X194204777Y-54376389D01*
X194190398Y-54602260D01*
X194152259Y-54770535D01*
X194107659Y-54868838D01*
X194046109Y-54949549D01*
X193966465Y-55015046D01*
X193873315Y-55060537D01*
X193751033Y-55090666D01*
X193591949Y-55101830D01*
X193424726Y-55088637D01*
X193295755Y-55052825D01*
X193196917Y-54998113D01*
X193122211Y-54925334D01*
X193050861Y-54799678D01*
X193002901Y-54625524D01*
X192984803Y-54387926D01*
X192984803Y-52985945D01*
X192974665Y-52869992D01*
X192947512Y-52784026D01*
X192906284Y-52720943D01*
X192848756Y-52672742D01*
X192779828Y-52643546D01*
X192696038Y-52633297D01*
X192612264Y-52643463D01*
X192542399Y-52672566D01*
X192483210Y-52720770D01*
X192440241Y-52784013D01*
X192412081Y-52869980D01*
X192401591Y-52985773D01*
X192401591Y-54344706D01*
X192419401Y-54662797D01*
X192466507Y-54899850D01*
X192522057Y-55041245D01*
X192603049Y-55171155D01*
X192711535Y-55291241D01*
X192820314Y-55377571D01*
X192940000Y-55446733D01*
X193071931Y-55499248D01*
X193286836Y-55547277D01*
X193551484Y-55564680D01*
X193768951Y-55556031D01*
X193955153Y-55531770D01*
X194114033Y-55494082D01*
X194265594Y-55436454D01*
X194392914Y-55363323D01*
X194499224Y-55275055D01*
X194588222Y-55169408D01*
X194661301Y-55043900D01*
X194718252Y-54895545D01*
X194769236Y-54652168D01*
X194787989Y-54343673D01*
G37*
G36*
X189637233Y-54664637D02*
G01*
X189652345Y-54832296D01*
X189696639Y-54985498D01*
X189770165Y-55127315D01*
X189869998Y-55251890D01*
X189998025Y-55358803D01*
X190158456Y-55448624D01*
X190332517Y-55511252D01*
X190532837Y-55550759D01*
X190763881Y-55564680D01*
X191040028Y-55545236D01*
X191267990Y-55491060D01*
X191456261Y-55406437D01*
X191577587Y-55321698D01*
X191682215Y-55220468D01*
X191771371Y-55101486D01*
X191840910Y-54970188D01*
X191880052Y-54847165D01*
X191892594Y-54729897D01*
X191874115Y-54631376D01*
X191818724Y-54548064D01*
X191735728Y-54491607D01*
X191630863Y-54472299D01*
X191544771Y-54487265D01*
X191474341Y-54531189D01*
X191417592Y-54600147D01*
X191365517Y-54704930D01*
X191307696Y-54832255D01*
X191249976Y-54928951D01*
X191176856Y-55009413D01*
X191075374Y-55076863D01*
X190952323Y-55118936D01*
X190779378Y-55134891D01*
X190614753Y-55120621D01*
X190480245Y-55080776D01*
X190369907Y-55017801D01*
X190280556Y-54930732D01*
X190229733Y-54834909D01*
X190212696Y-54726281D01*
X190222645Y-54637441D01*
X190250945Y-54563651D01*
X190297242Y-54501572D01*
X190392142Y-54426618D01*
X190516786Y-54369157D01*
X190878732Y-54271180D01*
X191169923Y-54190087D01*
X191389968Y-54103982D01*
X191520070Y-54030753D01*
X191628371Y-53943546D01*
X191717303Y-53841907D01*
X191783188Y-53725655D01*
X191824115Y-53589641D01*
X191838526Y-53429165D01*
X191823943Y-53276543D01*
X191781284Y-53138407D01*
X191710416Y-53011601D01*
X191614922Y-52901739D01*
X191492941Y-52808377D01*
X191340204Y-52731274D01*
X191175974Y-52678442D01*
X190987705Y-52645056D01*
X190771629Y-52633297D01*
X190520625Y-52650681D01*
X190319972Y-52698386D01*
X190141632Y-52776141D01*
X190003312Y-52871093D01*
X189891462Y-52984769D01*
X189818895Y-53097525D01*
X189774554Y-53217039D01*
X189760522Y-53329294D01*
X189778674Y-53427668D01*
X189834392Y-53517327D01*
X189888090Y-53564136D01*
X189948630Y-53591620D01*
X190018465Y-53601012D01*
X190110136Y-53587545D01*
X190171026Y-53551593D01*
X190221064Y-53492472D01*
X190283467Y-53390766D01*
X190370497Y-53244355D01*
X190466851Y-53141261D01*
X190543489Y-53095358D01*
X190654114Y-53064051D01*
X190810200Y-53052066D01*
X190953900Y-53063887D01*
X191069980Y-53096665D01*
X191163881Y-53147977D01*
X191240998Y-53219466D01*
X191283792Y-53295065D01*
X191297845Y-53377852D01*
X191286259Y-53455912D01*
X191252559Y-53521115D01*
X191200069Y-53576173D01*
X191127204Y-53625463D01*
X190964483Y-53694340D01*
X190691216Y-53767349D01*
X190458381Y-53827557D01*
X190258155Y-53890810D01*
X190073985Y-53967978D01*
X189927376Y-54055425D01*
X189805655Y-54165181D01*
X189714031Y-54300797D01*
X189672768Y-54402650D01*
X189646553Y-54522763D01*
X189637233Y-54664637D01*
G37*
G36*
X188935502Y-52699347D02*
G01*
X189022221Y-52728315D01*
X189083467Y-52771911D01*
X189126917Y-52833121D01*
X189155954Y-52920814D01*
X189166979Y-53044146D01*
X189166979Y-55164852D01*
X189156313Y-55285767D01*
X189128045Y-55373157D01*
X189085533Y-55435365D01*
X189025199Y-55479706D01*
X188938065Y-55509331D01*
X188814676Y-55520600D01*
X187951826Y-55520600D01*
X187734829Y-55514636D01*
X187559919Y-55498387D01*
X187397843Y-55467125D01*
X187261856Y-55421762D01*
X187132534Y-55349567D01*
X187023250Y-55256027D01*
X186931937Y-55139368D01*
X186864307Y-55007304D01*
X186823571Y-54864911D01*
X186809682Y-54709407D01*
X186813783Y-54666187D01*
X187400470Y-54666187D01*
X187415851Y-54790472D01*
X187458868Y-54887891D01*
X187529043Y-54964966D01*
X187631405Y-55024402D01*
X187775631Y-55064566D01*
X187974900Y-55079790D01*
X188583940Y-55079790D01*
X188583940Y-54264292D01*
X187994185Y-54264292D01*
X187796921Y-54277000D01*
X187652457Y-54310479D01*
X187548726Y-54359514D01*
X187467904Y-54433838D01*
X187418380Y-54533241D01*
X187400470Y-54666187D01*
X186813783Y-54666187D01*
X186825340Y-54544408D01*
X186869952Y-54404177D01*
X186942229Y-54283757D01*
X187043944Y-54179840D01*
X187179744Y-54091117D01*
X187356733Y-54018403D01*
X187202010Y-53928342D01*
X187088016Y-53823462D01*
X187008251Y-53703015D01*
X186959588Y-53563916D01*
X186950512Y-53476862D01*
X187514116Y-53476862D01*
X187526171Y-53570967D01*
X187561641Y-53654391D01*
X187608748Y-53721503D01*
X187666839Y-53771332D01*
X187737448Y-53805747D01*
X187864984Y-53834056D01*
X188065472Y-53845523D01*
X188583940Y-53845523D01*
X188583940Y-53129208D01*
X188125050Y-53129208D01*
X187916462Y-53138723D01*
X187767410Y-53163365D01*
X187664267Y-53198257D01*
X187582978Y-53257472D01*
X187532776Y-53346576D01*
X187514116Y-53476862D01*
X186950512Y-53476862D01*
X186942613Y-53401098D01*
X186952928Y-53279661D01*
X186983423Y-53165885D01*
X187033342Y-53059517D01*
X187101890Y-52962527D01*
X187185661Y-52878364D01*
X187280625Y-52810654D01*
X187405187Y-52750912D01*
X187548038Y-52713538D01*
X187703642Y-52695181D01*
X187899824Y-52688399D01*
X188814676Y-52688399D01*
X188935502Y-52699347D01*
G37*
G36*
X185096443Y-52699203D02*
G01*
X185186672Y-52727806D01*
X185250835Y-52770706D01*
X185296895Y-52831659D01*
X185327537Y-52919471D01*
X185339169Y-53043629D01*
X185339169Y-55215132D01*
X185328991Y-55326542D01*
X185301370Y-55411299D01*
X185258755Y-55475485D01*
X185199959Y-55524677D01*
X185130351Y-55554324D01*
X185046616Y-55564680D01*
X184966770Y-55554444D01*
X184898319Y-55524713D01*
X184838437Y-55474624D01*
X184794686Y-55409601D01*
X184766378Y-55323833D01*
X184755957Y-55211172D01*
X184755957Y-54418576D01*
X184237489Y-54418576D01*
X183969108Y-54401994D01*
X183752985Y-54356440D01*
X183579833Y-54286689D01*
X183441966Y-54195244D01*
X183327960Y-54074665D01*
X183245176Y-53928947D01*
X183192998Y-53752901D01*
X183175461Y-53551593D01*
X183765341Y-53551593D01*
X183784115Y-53694525D01*
X183835595Y-53799721D01*
X183919476Y-53879507D01*
X184040330Y-53936096D01*
X184183628Y-53966337D01*
X184376275Y-53977766D01*
X184755957Y-53977766D01*
X184755957Y-53129208D01*
X184376275Y-53129208D01*
X184175512Y-53139732D01*
X184033809Y-53166912D01*
X183937054Y-53205441D01*
X183873649Y-53252153D01*
X183814461Y-53334904D01*
X183778132Y-53433271D01*
X183765341Y-53551593D01*
X183175461Y-53551593D01*
X183174381Y-53539195D01*
X183191469Y-53343308D01*
X183240330Y-53174150D01*
X183321996Y-53023615D01*
X183433529Y-52899333D01*
X183571264Y-52803688D01*
X183735208Y-52738678D01*
X183930197Y-52702932D01*
X184237662Y-52688399D01*
X184971540Y-52688399D01*
X185096443Y-52699203D01*
G37*
G36*
X182470097Y-52699455D02*
G01*
X182557772Y-52728719D01*
X182619753Y-52772772D01*
X182663903Y-52834661D01*
X182693223Y-52922221D01*
X182704299Y-53044146D01*
X182704299Y-55112851D01*
X182697491Y-55243859D01*
X182679848Y-55337388D01*
X182641524Y-55414340D01*
X182574811Y-55472558D01*
X182483105Y-55506875D01*
X182336671Y-55520600D01*
X181591083Y-55520600D01*
X181400911Y-55514001D01*
X181240329Y-55495632D01*
X181088697Y-55461195D01*
X180949154Y-55409020D01*
X180819248Y-55337563D01*
X180699304Y-55245438D01*
X180566783Y-55102497D01*
X180461164Y-54942554D01*
X180381371Y-54765500D01*
X180323928Y-54562700D01*
X180291096Y-54346138D01*
X180279502Y-54097439D01*
X180279697Y-54093823D01*
X180870290Y-54093823D01*
X180884451Y-54339907D01*
X180923362Y-54538750D01*
X180982823Y-54698449D01*
X181060363Y-54825843D01*
X181155439Y-54926195D01*
X181223262Y-54974725D01*
X181304212Y-55011947D01*
X181470549Y-55050173D01*
X181693192Y-55057750D01*
X182121087Y-55057750D01*
X182121087Y-53151248D01*
X181748982Y-53151248D01*
X181498364Y-53166532D01*
X181304384Y-53207727D01*
X181192287Y-53259537D01*
X181089902Y-53344990D01*
X180995646Y-53470663D01*
X180931339Y-53614689D01*
X180887130Y-53816686D01*
X180870290Y-54093823D01*
X180279697Y-54093823D01*
X180293845Y-53832046D01*
X180334510Y-53601628D01*
X180398743Y-53401466D01*
X180484912Y-53227466D01*
X180592586Y-53076286D01*
X180722550Y-52945480D01*
X180841662Y-52855971D01*
X180967739Y-52788725D01*
X181102060Y-52742467D01*
X181321821Y-52703010D01*
X181602620Y-52688399D01*
X182348035Y-52688399D01*
X182470097Y-52699455D01*
G37*
D18*
%TO.C,G\u002A\u002A\u002A*%
G36*
X143534952Y-53315812D02*
G01*
X143644962Y-53317721D01*
X143721018Y-53322198D01*
X143766923Y-53329559D01*
X143786483Y-53340115D01*
X143788252Y-53343818D01*
X143799158Y-53379807D01*
X143815122Y-53444325D01*
X143834286Y-53529553D01*
X143854793Y-53627671D01*
X143878117Y-53736623D01*
X143901873Y-53829034D01*
X143922942Y-53887855D01*
X143942180Y-53915906D01*
X143953745Y-53923165D01*
X144001496Y-53946714D01*
X144068625Y-53975506D01*
X144144125Y-54005293D01*
X144216991Y-54031828D01*
X144276215Y-54050864D01*
X144310792Y-54058153D01*
X144317098Y-54056704D01*
X144353689Y-54039145D01*
X144413334Y-54004793D01*
X144489360Y-53957601D01*
X144575097Y-53901524D01*
X144808887Y-53744894D01*
X145015584Y-53951590D01*
X145222280Y-54158286D01*
X145188126Y-54210797D01*
X145168234Y-54241120D01*
X145129903Y-54299182D01*
X145080869Y-54373230D01*
X145027024Y-54454358D01*
X144900077Y-54645409D01*
X144974704Y-54830066D01*
X144996573Y-54882202D01*
X145030703Y-54956468D01*
X145060267Y-55012725D01*
X145080628Y-55041705D01*
X145111034Y-55055615D01*
X145171351Y-55073796D01*
X145252723Y-55093809D01*
X145346385Y-55113294D01*
X145439495Y-55131859D01*
X145521677Y-55149839D01*
X145583150Y-55165013D01*
X145615039Y-55175330D01*
X145623688Y-55181018D01*
X145634888Y-55197290D01*
X145642290Y-55227317D01*
X145646648Y-55277429D01*
X145648711Y-55353953D01*
X145649231Y-55463218D01*
X145649216Y-55478411D01*
X145647633Y-55596268D01*
X145643234Y-55679018D01*
X145635724Y-55730168D01*
X145624808Y-55753225D01*
X145624343Y-55753575D01*
X145595035Y-55764732D01*
X145535924Y-55780338D01*
X145455369Y-55798373D01*
X145361728Y-55816817D01*
X145294630Y-55829932D01*
X145196465Y-55852757D01*
X145128428Y-55874016D01*
X145094888Y-55892469D01*
X145075404Y-55924018D01*
X145047219Y-55981926D01*
X145014809Y-56055639D01*
X144982358Y-56134930D01*
X144954048Y-56209570D01*
X144934062Y-56269332D01*
X144926584Y-56303989D01*
X144927341Y-56308115D01*
X144942805Y-56342158D01*
X144975169Y-56399816D01*
X145020414Y-56474179D01*
X145074521Y-56558336D01*
X145222180Y-56782287D01*
X145016814Y-56985183D01*
X144929132Y-57069616D01*
X144857877Y-57132629D01*
X144810355Y-57166860D01*
X144785840Y-57172902D01*
X144785220Y-57172531D01*
X144758198Y-57155222D01*
X144706317Y-57121183D01*
X144636791Y-57075172D01*
X144556834Y-57021942D01*
X144353436Y-56886159D01*
X144245200Y-56939242D01*
X144192236Y-56964295D01*
X144153038Y-56978236D01*
X144130227Y-56976589D01*
X144114037Y-56960971D01*
X144113679Y-56960455D01*
X144100038Y-56933317D01*
X144074544Y-56876612D01*
X144039828Y-56796655D01*
X143998520Y-56699760D01*
X143953254Y-56592242D01*
X143906661Y-56480414D01*
X143861372Y-56370593D01*
X143820019Y-56269092D01*
X143785234Y-56182225D01*
X143759649Y-56116308D01*
X143745895Y-56077655D01*
X143744667Y-56047226D01*
X143765472Y-56016302D01*
X143814550Y-55976022D01*
X143833201Y-55961544D01*
X143907502Y-55890701D01*
X143977128Y-55806234D01*
X144032967Y-55720156D01*
X144065911Y-55644484D01*
X144074582Y-55606231D01*
X144085079Y-55491078D01*
X144078487Y-55370214D01*
X144055379Y-55264333D01*
X144026964Y-55200796D01*
X143957555Y-55100520D01*
X143867154Y-55010252D01*
X143766180Y-54941618D01*
X143765518Y-54941271D01*
X143707990Y-54914244D01*
X143654011Y-54898402D01*
X143589406Y-54890949D01*
X143500000Y-54889086D01*
X143410907Y-54890935D01*
X143346331Y-54898338D01*
X143292776Y-54914044D01*
X143236231Y-54940798D01*
X143129940Y-55010293D01*
X143035519Y-55109288D01*
X142961361Y-55237436D01*
X142935079Y-55299867D01*
X142919748Y-55356152D01*
X142914886Y-55417978D01*
X142917756Y-55501954D01*
X142930322Y-55605789D01*
X142971945Y-55735422D01*
X143044829Y-55848294D01*
X143152858Y-55951838D01*
X143187187Y-55979963D01*
X143232454Y-56022550D01*
X143252588Y-56053836D01*
X143252687Y-56080384D01*
X143249561Y-56089729D01*
X143231566Y-56137694D01*
X143202748Y-56210430D01*
X143165664Y-56301841D01*
X143122869Y-56405831D01*
X143076920Y-56516303D01*
X143030371Y-56627161D01*
X142985779Y-56732309D01*
X142945700Y-56825651D01*
X142912689Y-56901089D01*
X142889303Y-56952529D01*
X142878097Y-56973872D01*
X142861567Y-56976820D01*
X142816473Y-56965472D01*
X142753827Y-56938765D01*
X142646895Y-56886320D01*
X142425467Y-57034283D01*
X142394574Y-57054793D01*
X142303907Y-57112607D01*
X142239285Y-57149009D01*
X142196928Y-57165961D01*
X142173059Y-57165426D01*
X142170466Y-57163809D01*
X142141548Y-57139659D01*
X142092774Y-57094208D01*
X142030277Y-57033293D01*
X141960187Y-56962753D01*
X141778296Y-56776898D01*
X141831323Y-56692410D01*
X141836988Y-56683432D01*
X141876918Y-56621477D01*
X141927440Y-56544536D01*
X141979021Y-56467151D01*
X141995829Y-56441711D01*
X142035627Y-56377341D01*
X142063311Y-56326397D01*
X142073693Y-56298143D01*
X142066756Y-56266063D01*
X142046557Y-56207273D01*
X142017452Y-56133352D01*
X141983844Y-56054590D01*
X141950134Y-55981273D01*
X141920722Y-55923693D01*
X141900012Y-55892137D01*
X141883340Y-55881523D01*
X141828089Y-55861464D01*
X141743191Y-55839567D01*
X141634357Y-55817438D01*
X141634113Y-55817394D01*
X141541313Y-55799183D01*
X141461621Y-55781196D01*
X141403515Y-55765504D01*
X141375473Y-55754178D01*
X141373561Y-55752280D01*
X141363112Y-55725398D01*
X141356043Y-55670759D01*
X141352035Y-55584615D01*
X141350770Y-55463218D01*
X141350930Y-55395122D01*
X141352263Y-55305695D01*
X141355582Y-55245307D01*
X141361636Y-55207621D01*
X141371179Y-55186302D01*
X141384962Y-55175015D01*
X141398598Y-55169791D01*
X141448308Y-55156395D01*
X141520529Y-55140407D01*
X141604770Y-55124250D01*
X141687287Y-55109753D01*
X141781813Y-55092343D01*
X141849310Y-55075779D01*
X141896432Y-55055593D01*
X141929833Y-55027315D01*
X141956167Y-54986477D01*
X141982087Y-54928610D01*
X142014248Y-54849245D01*
X142098462Y-54643527D01*
X141940677Y-54405945D01*
X141782893Y-54168363D01*
X141839055Y-54097452D01*
X141841213Y-54094741D01*
X141894321Y-54033238D01*
X141957924Y-53967039D01*
X142025826Y-53901686D01*
X142091834Y-53842723D01*
X142149755Y-53795692D01*
X142193395Y-53766138D01*
X142216560Y-53759602D01*
X142217993Y-53760514D01*
X142246190Y-53779185D01*
X142298862Y-53814541D01*
X142369024Y-53861880D01*
X142449690Y-53916500D01*
X142459572Y-53923174D01*
X142540674Y-53975839D01*
X142612110Y-54018730D01*
X142666464Y-54047588D01*
X142696319Y-54058153D01*
X142731191Y-54052789D01*
X142793846Y-54033180D01*
X142868276Y-54003483D01*
X142944733Y-53968249D01*
X143013469Y-53932032D01*
X143064736Y-53899384D01*
X143088787Y-53874858D01*
X143097218Y-53845130D01*
X143111432Y-53783692D01*
X143128664Y-53701740D01*
X143146842Y-53608769D01*
X143162868Y-53525078D01*
X143179043Y-53443462D01*
X143191827Y-53382022D01*
X143199369Y-53349884D01*
X143204933Y-53338715D01*
X143220181Y-53328531D01*
X143250301Y-53321848D01*
X143301344Y-53317954D01*
X143379358Y-53316139D01*
X143490395Y-53315692D01*
X143534952Y-53315812D01*
G37*
G36*
X170825000Y-89400000D02*
G01*
X172287500Y-89400000D01*
X173750000Y-89400000D01*
X173750000Y-89987500D01*
X173750000Y-90575000D01*
X172287500Y-90575000D01*
X170825000Y-90575000D01*
X170825000Y-91687500D01*
X170825000Y-92800000D01*
X172287500Y-92800000D01*
X173750000Y-92800000D01*
X173750000Y-92825000D01*
X173750000Y-93387500D01*
X173750000Y-93975000D01*
X172289249Y-93975000D01*
X170828497Y-93975000D01*
X170820499Y-94518750D01*
X170812500Y-95062500D01*
X170732876Y-95230583D01*
X170723084Y-95250768D01*
X170598907Y-95448099D01*
X170441409Y-95610020D01*
X170254289Y-95733405D01*
X170041246Y-95815126D01*
X170006212Y-95822767D01*
X169911426Y-95834750D01*
X169778224Y-95843099D01*
X169602776Y-95848017D01*
X169381250Y-95849703D01*
X168850000Y-95850000D01*
X168850000Y-97312500D01*
X168850000Y-98775000D01*
X168275000Y-98775000D01*
X167700000Y-98775000D01*
X167700000Y-97312500D01*
X167700000Y-95850000D01*
X166650000Y-95850000D01*
X165600000Y-95850000D01*
X165600000Y-97325000D01*
X165600000Y-98800000D01*
X165012500Y-98800000D01*
X164425000Y-98800000D01*
X164425000Y-97325000D01*
X164425000Y-95850000D01*
X163387500Y-95850000D01*
X162350000Y-95850000D01*
X162350000Y-97325000D01*
X162350000Y-98800000D01*
X161775000Y-98800000D01*
X161200000Y-98800000D01*
X161200000Y-97325000D01*
X161200000Y-95850000D01*
X160631250Y-95849703D01*
X160435474Y-95848628D01*
X160251554Y-95844851D01*
X160109511Y-95838151D01*
X160005020Y-95828314D01*
X159933755Y-95815126D01*
X159912800Y-95809325D01*
X159702028Y-95723568D01*
X159517526Y-95596441D01*
X159362991Y-95431071D01*
X159242125Y-95230583D01*
X159162500Y-95062500D01*
X159154472Y-94531250D01*
X159146443Y-94000000D01*
X157698222Y-94000000D01*
X156250000Y-94000000D01*
X156250000Y-93400000D01*
X156250000Y-92800000D01*
X157700000Y-92800000D01*
X159150000Y-92800000D01*
X159150000Y-91687500D01*
X159150000Y-90575000D01*
X157700000Y-90575000D01*
X156250000Y-90575000D01*
X156250000Y-89987500D01*
X156250000Y-89400000D01*
X157700000Y-89400000D01*
X159150000Y-89400000D01*
X159150000Y-88530468D01*
X161384688Y-88530468D01*
X161397255Y-88846918D01*
X161399986Y-88870970D01*
X161466183Y-89225515D01*
X161581191Y-89585908D01*
X161744327Y-89951298D01*
X161954908Y-90320837D01*
X162212249Y-90693674D01*
X162515668Y-91068960D01*
X162864480Y-91445847D01*
X163258003Y-91823483D01*
X163695553Y-92201019D01*
X164176447Y-92577606D01*
X164700000Y-92952395D01*
X164787131Y-93012006D01*
X164871752Y-93069560D01*
X164933964Y-93111486D01*
X164964377Y-93131426D01*
X164977974Y-93128966D01*
X165028036Y-93103981D01*
X165107034Y-93057278D01*
X165207902Y-92993463D01*
X165323573Y-92917142D01*
X165446980Y-92832922D01*
X165571057Y-92745411D01*
X165688738Y-92659215D01*
X165739059Y-92621515D01*
X165812500Y-92621515D01*
X165900000Y-92712345D01*
X165902355Y-92714772D01*
X166027484Y-92813572D01*
X166186197Y-92894718D01*
X166364060Y-92953420D01*
X166546641Y-92984887D01*
X166719506Y-92984331D01*
X166837500Y-92971197D01*
X167324760Y-93460598D01*
X167812020Y-93950000D01*
X169306010Y-93950000D01*
X170800000Y-93950000D01*
X170800000Y-93387500D01*
X170800000Y-92825000D01*
X169543375Y-92825000D01*
X168286750Y-92825000D01*
X167976013Y-92513515D01*
X167665276Y-92202030D01*
X167663025Y-91944765D01*
X167652719Y-91758411D01*
X167620384Y-91591933D01*
X167561862Y-91444277D01*
X167472915Y-91301088D01*
X167397455Y-91196918D01*
X167254978Y-91332624D01*
X167224457Y-91361514D01*
X167134954Y-91445049D01*
X167023710Y-91547692D01*
X166896054Y-91664634D01*
X166757313Y-91791066D01*
X166612812Y-91922180D01*
X166467878Y-92053167D01*
X166327839Y-92179217D01*
X166198022Y-92295523D01*
X166083752Y-92397275D01*
X165990358Y-92479664D01*
X165923165Y-92537882D01*
X165887500Y-92567120D01*
X165812500Y-92621515D01*
X165739059Y-92621515D01*
X165759862Y-92605930D01*
X165667115Y-92421715D01*
X165605633Y-92282091D01*
X165547033Y-92063313D01*
X165537720Y-91848500D01*
X165577694Y-91634914D01*
X165666956Y-91419820D01*
X165764713Y-91266784D01*
X165913452Y-91109000D01*
X166087234Y-90986497D01*
X166279440Y-90900695D01*
X166483449Y-90853019D01*
X166692644Y-90844891D01*
X166900403Y-90877734D01*
X167100107Y-90952970D01*
X167285137Y-91072022D01*
X167310508Y-91092580D01*
X167345847Y-91118052D01*
X167376749Y-91128354D01*
X167409169Y-91119517D01*
X167449063Y-91087570D01*
X167502388Y-91028541D01*
X167575099Y-90938462D01*
X167673153Y-90813360D01*
X167770731Y-90685232D01*
X168023192Y-90314088D01*
X168233166Y-89940942D01*
X168398503Y-89569888D01*
X168517057Y-89205019D01*
X168535155Y-89127612D01*
X168566533Y-88930164D01*
X168583321Y-88718218D01*
X168585148Y-88507235D01*
X168571641Y-88312675D01*
X168542429Y-88150000D01*
X168528027Y-88098467D01*
X168428777Y-87840409D01*
X168292185Y-87602847D01*
X168123436Y-87392447D01*
X167927715Y-87215877D01*
X167710205Y-87079803D01*
X167550912Y-87006610D01*
X167357444Y-86940880D01*
X167163417Y-86904876D01*
X166950000Y-86893997D01*
X166736438Y-86905799D01*
X166446313Y-86962539D01*
X166173485Y-87065596D01*
X165918867Y-87214299D01*
X165683369Y-87407980D01*
X165467904Y-87645968D01*
X165273383Y-87927596D01*
X165100717Y-88252192D01*
X164988933Y-88491677D01*
X164859332Y-88222949D01*
X164834676Y-88172696D01*
X164660607Y-87862950D01*
X164469719Y-87598634D01*
X164260080Y-87377669D01*
X164029759Y-87197973D01*
X163776823Y-87057467D01*
X163752147Y-87046308D01*
X163516462Y-86958869D01*
X163280841Y-86909569D01*
X163025000Y-86893997D01*
X162859925Y-86901290D01*
X162583704Y-86950230D01*
X162327211Y-87045079D01*
X162090842Y-87185672D01*
X161874995Y-87371844D01*
X161788469Y-87466134D01*
X161619869Y-87700598D01*
X161496222Y-87956608D01*
X161417752Y-88233465D01*
X161384688Y-88530468D01*
X159150000Y-88530468D01*
X159150000Y-88275000D01*
X159150000Y-87150000D01*
X157700000Y-87150000D01*
X156250000Y-87150000D01*
X156250000Y-86562500D01*
X156250000Y-85975000D01*
X157697816Y-85975000D01*
X159145631Y-85975000D01*
X159154166Y-85456250D01*
X159162701Y-84937500D01*
X159245207Y-84768584D01*
X159257793Y-84743657D01*
X159384562Y-84553303D01*
X159548283Y-84393442D01*
X159742359Y-84270681D01*
X159911198Y-84187500D01*
X160549349Y-84175000D01*
X161187500Y-84162500D01*
X161193951Y-82693298D01*
X161200401Y-81224096D01*
X161793951Y-81230798D01*
X162387500Y-81237500D01*
X162393950Y-82706533D01*
X162400400Y-84175566D01*
X163406450Y-84169033D01*
X164412500Y-84162500D01*
X164418949Y-82681249D01*
X164425397Y-81199999D01*
X165012500Y-81199999D01*
X165599604Y-81200000D01*
X165606052Y-82681250D01*
X165612500Y-84162500D01*
X166662500Y-84162500D01*
X167712500Y-84162500D01*
X167718949Y-82681249D01*
X167725397Y-81199999D01*
X168312699Y-81199999D01*
X168900000Y-81200000D01*
X168900000Y-82687500D01*
X168900000Y-84175000D01*
X169432963Y-84174999D01*
X169624162Y-84175862D01*
X169793487Y-84179732D01*
X169928424Y-84188153D01*
X170037128Y-84202666D01*
X170127752Y-84224810D01*
X170208450Y-84256125D01*
X170287376Y-84298149D01*
X170372684Y-84352423D01*
X170404057Y-84374334D01*
X170562849Y-84519538D01*
X170689274Y-84696574D01*
X170775445Y-84894823D01*
X170792396Y-84955691D01*
X170806173Y-85025047D01*
X170815557Y-85106097D01*
X170821313Y-85208414D01*
X170824206Y-85341568D01*
X170825000Y-85515133D01*
X170825000Y-85975000D01*
X172287500Y-85975000D01*
X173750000Y-85975000D01*
X173750000Y-86562500D01*
X173750000Y-87150000D01*
X172287500Y-87150000D01*
X170825000Y-87150000D01*
X170825000Y-88275000D01*
X170825000Y-88507235D01*
X170825000Y-89400000D01*
G37*
%TD*%
%LPC*%
D19*
%TO.C,JP19*%
X147500000Y-114790000D03*
D20*
X147500000Y-112250000D03*
X147500000Y-109710000D03*
%TD*%
D21*
%TO.C,J7*%
X163095000Y-73125000D03*
D22*
X166905000Y-73125000D03*
%TD*%
D19*
%TO.C,JP10*%
X154500000Y-71040000D03*
D20*
X154500000Y-68500000D03*
X154500000Y-65960000D03*
%TD*%
D19*
%TO.C,JP7*%
X136725000Y-119500000D03*
D20*
X139265000Y-119500000D03*
%TD*%
D19*
%TO.C,JP17*%
X179500000Y-71775000D03*
D20*
X179500000Y-69235000D03*
%TD*%
D23*
%TO.C,H1*%
X130000000Y-125000000D03*
D24*
X130000000Y-125000000D03*
%TD*%
D25*
%TO.C,J4*%
X185000000Y-124500000D03*
D26*
X187000000Y-124500000D03*
X189000000Y-124500000D03*
X191000000Y-124500000D03*
%TD*%
D19*
%TO.C,JP3*%
X177000000Y-103500000D03*
D20*
X177000000Y-100960000D03*
%TD*%
D19*
%TO.C,JP22*%
X172500000Y-103500000D03*
D20*
X172500000Y-100960000D03*
%TD*%
D27*
%TO.C,J12*%
X199000000Y-69000000D03*
D28*
X199000000Y-67000000D03*
%TD*%
D19*
%TO.C,J6*%
X194725000Y-104650000D03*
D20*
X194725000Y-107190000D03*
X194725000Y-109730000D03*
X194725000Y-112270000D03*
X194725000Y-114810000D03*
X194725000Y-117350000D03*
X197265000Y-104650000D03*
X197265000Y-107190000D03*
X197265000Y-109730000D03*
X197265000Y-112270000D03*
X197265000Y-114810000D03*
X197265000Y-117350000D03*
%TD*%
D25*
%TO.C,J10*%
X137000000Y-124450000D03*
D26*
X139000000Y-124450000D03*
%TD*%
D23*
%TO.C,H2*%
X200000000Y-125000000D03*
D24*
X200000000Y-125000000D03*
%TD*%
D19*
%TO.C,JP1*%
X137500000Y-62225000D03*
D20*
X137500000Y-64765000D03*
%TD*%
D27*
%TO.C,J11*%
X130950000Y-64500000D03*
D28*
X130950000Y-62500000D03*
%TD*%
D19*
%TO.C,JP12*%
X160500000Y-57275000D03*
D20*
X160500000Y-54735000D03*
X163040000Y-57275000D03*
X163040000Y-54735000D03*
X165580000Y-57275000D03*
X165580000Y-54735000D03*
%TD*%
D25*
%TO.C,J2*%
X175000000Y-124500000D03*
D26*
X177000000Y-124500000D03*
%TD*%
D29*
%TO.C,J1*%
X162110000Y-129395000D03*
X167890000Y-129395000D03*
D30*
X160680000Y-128895000D03*
D31*
X160680000Y-133075000D03*
D30*
X169320000Y-128895000D03*
D31*
X169320000Y-133075000D03*
%TD*%
D19*
%TO.C,J5*%
X194725000Y-86650000D03*
D20*
X194725000Y-89190000D03*
X194725000Y-91730000D03*
X194725000Y-94270000D03*
X194725000Y-96810000D03*
X194725000Y-99350000D03*
X197265000Y-86650000D03*
X197265000Y-89190000D03*
X197265000Y-91730000D03*
X197265000Y-94270000D03*
X197265000Y-96810000D03*
X197265000Y-99350000D03*
%TD*%
D19*
%TO.C,JP13*%
X152225000Y-54725000D03*
D20*
X154765000Y-54725000D03*
X152225000Y-57265000D03*
X154765000Y-57265000D03*
%TD*%
D19*
%TO.C,JP18*%
X134181506Y-114575402D03*
D20*
X136721506Y-114575402D03*
X139261506Y-114575402D03*
%TD*%
D19*
%TO.C,JP8*%
X158000000Y-103500000D03*
D20*
X158000000Y-100960000D03*
X160540000Y-103500000D03*
X160540000Y-100960000D03*
X163080000Y-103500000D03*
X163080000Y-100960000D03*
%TD*%
D19*
%TO.C,JP14*%
X169460000Y-81500000D03*
D20*
X172000000Y-81500000D03*
X174540000Y-81500000D03*
%TD*%
D19*
%TO.C,JP11*%
X176540000Y-54725000D03*
D20*
X176540000Y-57265000D03*
X174000000Y-54725000D03*
X174000000Y-57265000D03*
X171460000Y-54725000D03*
X171460000Y-57265000D03*
%TD*%
D23*
%TO.C,H6*%
X150000000Y-90000000D03*
D24*
X150000000Y-90000000D03*
%TD*%
D19*
%TO.C,JP6*%
X154000000Y-120500000D03*
D20*
X156540000Y-120500000D03*
X154000000Y-123040000D03*
X156540000Y-123040000D03*
%TD*%
D19*
%TO.C,JP9*%
X154500000Y-81540000D03*
D20*
X154500000Y-79000000D03*
X154500000Y-76460000D03*
%TD*%
D19*
%TO.C,JP20*%
X132460000Y-81500000D03*
D20*
X135000000Y-81500000D03*
X137540000Y-81500000D03*
%TD*%
D23*
%TO.C,H5*%
X180000000Y-90000000D03*
D24*
X180000000Y-90000000D03*
%TD*%
D27*
%TO.C,J9*%
X130950000Y-75000000D03*
D28*
X130950000Y-73000000D03*
X130950000Y-71000000D03*
%TD*%
D19*
%TO.C,JP16*%
X174500000Y-71775000D03*
D20*
X174500000Y-69235000D03*
%TD*%
D23*
%TO.C,H4*%
X130000000Y-55000000D03*
D24*
X130000000Y-55000000D03*
%TD*%
D19*
%TO.C,JP15*%
X200775000Y-61000000D03*
D20*
X198235000Y-61000000D03*
%TD*%
D25*
%TO.C,J3*%
X145500000Y-124450000D03*
D26*
X147500000Y-124450000D03*
%TD*%
D19*
%TO.C,JP21*%
X168000000Y-109725000D03*
D20*
X168000000Y-112265000D03*
%TD*%
D27*
%TO.C,J8*%
X198964813Y-79491112D03*
D28*
X198964813Y-77491112D03*
X198964813Y-75491112D03*
%TD*%
D23*
%TO.C,H3*%
X200000000Y-55000000D03*
D24*
X200000000Y-55000000D03*
%TD*%
%LPD*%
M02*
