M48
; DRILL file {KiCad 9.0.6} date 2026-02-01T12:39:02+0100
; FORMAT={-:-/ absolute / inch / decimal}
; #@! TF.CreationDate,2026-02-01T12:39:02+01:00
; #@! TF.GenerationSoftware,Kicad,Pcbnew,9.0.6
; #@! TF.FileFunction,Plated,1,2,PTH
FMAT,2
INCH
; #@! TA.AperFunction,Plated,PTH,ViaDrill
T1C0.0118
; #@! TA.AperFunction,Plated,PTH,ViaDrill
T2C0.0157
; #@! TA.AperFunction,Plated,PTH,ViaDrill
T3C0.0197
; #@! TA.AperFunction,Plated,PTH,ComponentDrill
T4C0.0236
; #@! TA.AperFunction,Plated,PTH,ComponentDrill
T5C0.0295
; #@! TA.AperFunction,Plated,PTH,ComponentDrill
T6C0.0394
; #@! TA.AperFunction,Plated,PTH,ComponentDrill
T7C0.0472
; #@! TA.AperFunction,Plated,PTH,ComponentDrill
T8C0.1260
%
G90
G05
T1
X5.1772Y-3.9567
X5.2654Y-3.913
X5.2656Y-3.6482
X5.315Y-4.1732
X5.3346Y-3.8189
X5.3346Y-3.8583
X5.3543Y-3.9764
X5.3937Y-3.8976
X5.3937Y-4.0157
X5.4331Y-3.8976
X5.4921Y-3.8976
X5.5315Y-3.8976
X5.64Y-2.8666
X5.772Y-2.9284
X5.7874Y-2.7756
X5.8465Y-2.9921
X5.854Y-2.7798
X6.3583Y-3.1299
X6.5138Y-4.9803
X6.5355Y-4.9252
X6.5817Y-4.6191
X6.5817Y-4.7628
X6.5945Y-4.9803
X6.6142Y-4.1142
X6.6339Y-4.9016
X6.7913Y-4.1929
X6.7913Y-4.5276
X6.8701Y-4.3307
X6.8898Y-4.4882
X6.9291Y-4.3898
X6.9291Y-4.4291
X6.9685Y-4.4291
X6.9882Y-3.2874
X6.9882Y-4.4783
X7.0079Y-4.4291
X7.0276Y-4.626
X7.0472Y-4.3701
X7.0472Y-4.4291
X7.0768Y-4.4587
X7.1024Y-4.2913
X7.1457Y-4.7835
X7.1654Y-4.1732
X7.1654Y-4.4094
X7.2244Y-4.6063
X7.2638Y-4.1339
X7.3622Y-4.3504
X7.4409Y-4.626
T2
X6.9488Y-2.9528
X6.9488Y-3.0118
X6.9488Y-3.0709
X6.9488Y-3.1299
X6.9882Y-4.2913
X7.0276Y-2.9724
T3
X4.9902Y-4.4193
X5.0098Y-2.6476
X5.0098Y-3.0413
X5.0098Y-3.2382
X5.0886Y-3.435
X5.0886Y-3.6122
X5.0886Y-3.8091
X5.0886Y-4.0059
X5.0886Y-4.3209
X5.1083Y-3.1398
X5.1772Y-4.626
X5.187Y-3.3366
X5.187Y-3.5236
X5.1969Y-4.4291
X5.2559Y-2.874
X5.2854Y-3.4252
X5.3051Y-2.1555
X5.3051Y-2.3524
X5.315Y-2.5
X5.315Y-3.0315
X5.4035Y-2.0571
X5.4035Y-2.2539
X5.4232Y-4.3701
X5.502Y-2.1555
X5.502Y-2.3524
X5.5118Y-2.5
X5.5118Y-4.0157
X5.5118Y-4.124
X5.5217Y-3.1102
X5.5709Y-2.5984
X5.6004Y-5.0197
X5.6496Y-4.2913
X5.6693Y-2.6969
X5.748Y-3.0512
X5.748Y-3.1299
X5.748Y-3.3858
X5.748Y-3.6024
X5.748Y-3.7894
X5.748Y-3.9902
X5.748Y-4.1929
X5.7677Y-2.5984
X5.7677Y-2.6969
X5.8465Y-3.2874
X5.8465Y-3.7008
X5.8465Y-3.8976
X5.8465Y-4.0945
X5.8661Y-2.4803
X5.9449Y-2.6378
X5.9449Y-3.1299
X5.9449Y-3.3858
X5.9449Y-3.7894
X5.9449Y-3.9961
X5.9449Y-4.1929
X5.9449Y-4.3898
X5.9646Y-2.3819
X6.0433Y-2.9134
X6.0433Y-3.2874
X6.0433Y-3.4843
X6.0433Y-3.7008
X6.0433Y-3.8976
X6.0433Y-4.0945
X6.0433Y-4.2913
X6.0433Y-4.4882
X6.0433Y-5.0591
X6.063Y-2.4803
X6.1417Y-4.1929
X6.1417Y-4.2913
X6.1417Y-4.389
X6.1417Y-4.4882
X6.1614Y-2.3819
X6.3189Y-2.6378
X6.3189Y-2.8346
X6.3583Y-3.0315
X6.378Y-3.8976
X6.4173Y-4.1732
X6.4272Y-2.0374
X6.4567Y-3.1299
X6.4567Y-3.3858
X6.4567Y-3.5827
X6.4567Y-3.7795
X6.5157Y-4.2717
X6.5157Y-4.4685
X6.5157Y-4.6654
X6.5551Y-3.0315
X6.5551Y-3.2874
X6.5551Y-3.4843
X6.5551Y-3.6811
X6.6142Y-4.1732
X6.6339Y-4.6654
X6.6535Y-3.1299
X6.6535Y-3.3858
X6.6535Y-3.5827
X6.6732Y-4.9606
X6.6831Y-3.8976
X6.752Y-3.2874
X6.752Y-3.4843
X6.752Y-4.6063
X6.7815Y-3.7992
X6.7913Y-2.5
X6.8012Y-2.0374
X6.8799Y-3.7008
X6.8799Y-3.8976
X6.8898Y-4.7638
X6.9094Y-4.2126
X6.9291Y-2.6181
X6.9685Y-2.7362
X6.9783Y-3.7992
X7.0549Y-2.643
X7.0768Y-3.7008
X7.0768Y-3.8976
X7.126Y-5.0197
X7.1654Y-3.2283
X7.1654Y-3.4055
X7.1752Y-3.7992
X7.185Y-4.6358
X7.2047Y-2.3425
X7.2244Y-2.5394
X7.2244Y-2.9528
X7.2736Y-3.5039
X7.2736Y-3.7008
X7.2736Y-3.7008
X7.2736Y-3.8976
X7.3031Y-2.4409
X7.3031Y-4.5866
X7.3622Y-2.6772
X7.372Y-3.6024
X7.372Y-3.7992
X7.372Y-3.9961
X7.372Y-4.1929
X7.3819Y-3.2283
X7.3819Y-3.4055
X7.4016Y-2.3425
X7.4016Y-2.5394
X7.4311Y-4.3209
X7.4311Y-4.5276
X7.4705Y-3.5039
X7.4705Y-3.7008
X7.4705Y-3.8976
X7.4705Y-4.0945
X7.5Y-2.4409
X7.5984Y-2.3425
X7.5984Y-2.5394
X7.5984Y-2.6969
X7.6378Y-3.1496
X7.6673Y-5.0197
X7.6969Y-2.4409
X7.6969Y-2.6378
X7.6969Y-2.8937
X7.7953Y-2.5394
X8.0118Y-2.3425
X8.0118Y-2.5394
X8.0118Y-2.8937
X8.0118Y-3.0906
X8.0118Y-3.2874
X8.0118Y-3.9665
X8.0118Y-4.6949
T5
X5.1555Y-2.4606
X5.1555Y-2.5394
X5.1555Y-2.7953
X5.1555Y-2.874
X5.1555Y-2.9528
X5.3937Y-4.8996
X5.4724Y-4.8996
X5.7283Y-4.8996
X5.8071Y-4.8996
X6.8898Y-4.9016
X6.9685Y-4.9016
X7.2835Y-4.9016
X7.3622Y-4.9016
X7.4409Y-4.9016
X7.5197Y-4.9016
X7.8333Y-2.9721
X7.8333Y-3.0508
X7.8333Y-3.1296
X7.8346Y-2.6378
X7.8346Y-2.7165
T6
X5.215Y-3.2087
X5.2827Y-4.5108
X5.315Y-3.2087
X5.3827Y-4.5108
X5.3829Y-4.7047
X5.4134Y-2.4498
X5.4134Y-2.5498
X5.415Y-3.2087
X5.4827Y-4.5108
X5.4829Y-4.7047
X5.8071Y-4.3193
X5.8071Y-4.4193
X5.8071Y-4.5193
X5.9931Y-2.1545
X5.9931Y-2.2545
X6.063Y-4.7441
X6.063Y-4.8441
X6.0827Y-2.5969
X6.0827Y-2.6969
X6.0827Y-2.7969
X6.0827Y-3.0102
X6.0827Y-3.1102
X6.0827Y-3.2102
X6.0931Y-2.1545
X6.0931Y-2.2545
X6.163Y-4.7441
X6.163Y-4.8441
X6.2205Y-3.9748
X6.2205Y-4.0748
X6.3189Y-2.1549
X6.3189Y-2.2549
X6.3205Y-3.9748
X6.3205Y-4.0748
X6.4189Y-2.1549
X6.4189Y-2.2549
X6.4205Y-3.9748
X6.4205Y-4.0748
X6.5189Y-2.1549
X6.5189Y-2.2549
X6.6142Y-4.3199
X6.6142Y-4.4199
X6.6717Y-3.2087
X6.7504Y-2.1545
X6.7504Y-2.2545
X6.7717Y-3.2087
X6.7913Y-3.9748
X6.7913Y-4.0748
X6.8504Y-2.1545
X6.8504Y-2.2545
X6.8701Y-2.7258
X6.8701Y-2.8258
X6.8717Y-3.2087
X6.9504Y-2.1545
X6.9504Y-2.2545
X6.9685Y-3.9748
X6.9685Y-4.0748
X7.0669Y-2.7258
X7.0669Y-2.8258
X7.6663Y-3.4114
X7.6663Y-3.5114
X7.6663Y-3.6114
X7.6663Y-3.7114
X7.6663Y-3.8114
X7.6663Y-3.9114
X7.6663Y-4.1201
X7.6663Y-4.2201
X7.6663Y-4.3201
X7.6663Y-4.4201
X7.6663Y-4.5201
X7.6663Y-4.6201
X7.7663Y-3.4114
X7.7663Y-3.5114
X7.7663Y-3.6114
X7.7663Y-3.7114
X7.7663Y-3.8114
X7.7663Y-3.9114
X7.7663Y-4.1201
X7.7663Y-4.2201
X7.7663Y-4.3201
X7.7663Y-4.4201
X7.7663Y-4.5201
X7.7663Y-4.6201
X7.8045Y-2.4016
X7.9045Y-2.4016
T7
X6.4211Y-2.8789
X6.5711Y-2.8789
T8
X5.1181Y-2.1654
X5.1181Y-4.9213
X5.9055Y-3.5433
X7.0866Y-3.5433
X7.874Y-2.1654
X7.874Y-4.9213
T4
G00X6.326Y-5.053
M15
G01X6.326Y-5.0963
M16
G05
G00X6.326Y-5.2234
M15
G01X6.326Y-5.2549
M16
G05
G00X6.6661Y-5.053
M15
G01X6.6661Y-5.0963
M16
G05
G00X6.6661Y-5.2234
M15
G01X6.6661Y-5.2549
M16
G05
M30
