%TF.GenerationSoftware,KiCad,Pcbnew,9.0.6*%
%TF.CreationDate,2026-02-01T12:39:02+01:00*%
%TF.ProjectId,light_controller_base,6c696768-745f-4636-9f6e-74726f6c6c65,v2026.1*%
%TF.SameCoordinates,Original*%
%TF.FileFunction,Soldermask,Top*%
%TF.FilePolarity,Negative*%
%FSLAX46Y46*%
G04 Gerber Fmt 4.6, Leading zero omitted, Abs format (unit mm)*
G04 Created by KiCad (PCBNEW 9.0.6) date 2026-02-01 12:39:02*
%MOMM*%
%LPD*%
G01*
G04 APERTURE LIST*
G04 Aperture macros list*
%AMRoundRect*
0 Rectangle with rounded corners*
0 $1 Rounding radius*
0 $2 $3 $4 $5 $6 $7 $8 $9 X,Y pos of 4 corners*
0 Add a 4 corners polygon primitive as box body*
4,1,4,$2,$3,$4,$5,$6,$7,$8,$9,$2,$3,0*
0 Add four circle primitives for the rounded corners*
1,1,$1+$1,$2,$3*
1,1,$1+$1,$4,$5*
1,1,$1+$1,$6,$7*
1,1,$1+$1,$8,$9*
0 Add four rect primitives between the rounded corners*
20,1,$1+$1,$2,$3,$4,$5,0*
20,1,$1+$1,$4,$5,$6,$7,0*
20,1,$1+$1,$6,$7,$8,$9,0*
20,1,$1+$1,$8,$9,$2,$3,0*%
%AMFreePoly0*
4,1,23,0.550000,-0.750000,0.000000,-0.750000,0.000000,-0.745722,-0.065263,-0.745722,-0.191342,-0.711940,-0.304381,-0.646677,-0.396677,-0.554381,-0.461940,-0.441342,-0.495722,-0.315263,-0.495722,-0.250000,-0.500000,-0.250000,-0.500000,0.250000,-0.495722,0.250000,-0.495722,0.315263,-0.461940,0.441342,-0.396677,0.554381,-0.304381,0.646677,-0.191342,0.711940,-0.065263,0.745722,0.000000,0.745722,
0.000000,0.750000,0.550000,0.750000,0.550000,-0.750000,0.550000,-0.750000,$1*%
%AMFreePoly1*
4,1,23,0.000000,0.745722,0.065263,0.745722,0.191342,0.711940,0.304381,0.646677,0.396677,0.554381,0.461940,0.441342,0.495722,0.315263,0.495722,0.250000,0.500000,0.250000,0.500000,-0.250000,0.495722,-0.250000,0.495722,-0.315263,0.461940,-0.441342,0.396677,-0.554381,0.304381,-0.646677,0.191342,-0.711940,0.065263,-0.745722,0.000000,-0.745722,0.000000,-0.750000,-0.550000,-0.750000,
-0.550000,0.750000,0.000000,0.750000,0.000000,0.745722,0.000000,0.745722,$1*%
%AMFreePoly2*
4,1,23,0.500000,-0.750000,0.000000,-0.750000,0.000000,-0.745722,-0.065263,-0.745722,-0.191342,-0.711940,-0.304381,-0.646677,-0.396677,-0.554381,-0.461940,-0.441342,-0.495722,-0.315263,-0.495722,-0.250000,-0.500000,-0.250000,-0.500000,0.250000,-0.495722,0.250000,-0.495722,0.315263,-0.461940,0.441342,-0.396677,0.554381,-0.304381,0.646677,-0.191342,0.711940,-0.065263,0.745722,0.000000,0.745722,
0.000000,0.750000,0.500000,0.750000,0.500000,-0.750000,0.500000,-0.750000,$1*%
%AMFreePoly3*
4,1,23,0.000000,0.745722,0.065263,0.745722,0.191342,0.711940,0.304381,0.646677,0.396677,0.554381,0.461940,0.441342,0.495722,0.315263,0.495722,0.250000,0.500000,0.250000,0.500000,-0.250000,0.495722,-0.250000,0.495722,-0.315263,0.461940,-0.441342,0.396677,-0.554381,0.304381,-0.646677,0.191342,-0.711940,0.065263,-0.745722,0.000000,-0.745722,0.000000,-0.750000,-0.500000,-0.750000,
-0.500000,0.750000,0.000000,0.750000,0.000000,0.745722,0.000000,0.745722,$1*%
G04 Aperture macros list end*
%ADD10C,0.200000*%
%ADD11C,0.150000*%
%ADD12C,0.000000*%
%ADD13R,0.500000X0.350000*%
%ADD14R,0.300000X0.400000*%
%ADD15R,0.430000X0.380000*%
%ADD16R,1.980000X2.450000*%
%ADD17R,1.525000X0.650000*%
%ADD18R,1.700000X1.700000*%
%ADD19C,1.700000*%
%ADD20R,1.800000X1.800000*%
%ADD21C,1.800000*%
%ADD22R,0.600000X1.250000*%
%ADD23R,1.200000X0.680000*%
%ADD24R,3.050000X1.930000*%
%ADD25R,0.300000X0.800000*%
%ADD26R,0.800000X0.300000*%
%ADD27R,1.200000X1.220000*%
%ADD28RoundRect,0.225000X-0.250000X0.225000X-0.250000X-0.225000X0.250000X-0.225000X0.250000X0.225000X0*%
%ADD29RoundRect,0.225000X0.225000X0.250000X-0.225000X0.250000X-0.225000X-0.250000X0.225000X-0.250000X0*%
%ADD30RoundRect,0.200000X-0.200000X-0.275000X0.200000X-0.275000X0.200000X0.275000X-0.200000X0.275000X0*%
%ADD31RoundRect,0.250000X-0.650000X0.325000X-0.650000X-0.325000X0.650000X-0.325000X0.650000X0.325000X0*%
%ADD32RoundRect,0.250000X0.625000X-0.312500X0.625000X0.312500X-0.625000X0.312500X-0.625000X-0.312500X0*%
%ADD33FreePoly0,270.000000*%
%ADD34R,1.500000X1.000000*%
%ADD35FreePoly1,270.000000*%
%ADD36RoundRect,0.250000X0.325000X0.650000X-0.325000X0.650000X-0.325000X-0.650000X0.325000X-0.650000X0*%
%ADD37RoundRect,0.200000X-0.275000X0.200000X-0.275000X-0.200000X0.275000X-0.200000X0.275000X0.200000X0*%
%ADD38C,3.600000*%
%ADD39C,5.600000*%
%ADD40RoundRect,0.250000X-0.350000X-0.625000X0.350000X-0.625000X0.350000X0.625000X-0.350000X0.625000X0*%
%ADD41O,1.200000X1.750000*%
%ADD42RoundRect,0.250000X0.625000X-0.350000X0.625000X0.350000X-0.625000X0.350000X-0.625000X-0.350000X0*%
%ADD43O,1.750000X1.200000*%
%ADD44RoundRect,0.263158X-0.736842X-0.986842X0.736842X-0.986842X0.736842X0.986842X-0.736842X0.986842X0*%
%ADD45RoundRect,0.250000X-0.450000X0.262500X-0.450000X-0.262500X0.450000X-0.262500X0.450000X0.262500X0*%
%ADD46RoundRect,0.250000X0.650000X-1.450000X0.650000X1.450000X-0.650000X1.450000X-0.650000X-1.450000X0*%
%ADD47R,1.200000X1.200000*%
%ADD48RoundRect,0.200000X0.200000X0.275000X-0.200000X0.275000X-0.200000X-0.275000X0.200000X-0.275000X0*%
%ADD49RoundRect,0.150000X-0.150000X-0.425000X0.150000X-0.425000X0.150000X0.425000X-0.150000X0.425000X0*%
%ADD50RoundRect,0.075000X-0.075000X-0.500000X0.075000X-0.500000X0.075000X0.500000X-0.075000X0.500000X0*%
%ADD51O,1.000000X2.100000*%
%ADD52O,1.000000X1.800000*%
%ADD53RoundRect,0.375000X0.375000X-0.625000X0.375000X0.625000X-0.375000X0.625000X-0.375000X-0.625000X0*%
%ADD54RoundRect,0.500000X1.400000X-0.500000X1.400000X0.500000X-1.400000X0.500000X-1.400000X-0.500000X0*%
%ADD55RoundRect,0.250000X-1.000000X-0.650000X1.000000X-0.650000X1.000000X0.650000X-1.000000X0.650000X0*%
%ADD56RoundRect,0.250000X-0.650000X1.450000X-0.650000X-1.450000X0.650000X-1.450000X0.650000X1.450000X0*%
%ADD57RoundRect,0.225000X-0.225000X-0.250000X0.225000X-0.250000X0.225000X0.250000X-0.225000X0.250000X0*%
%ADD58RoundRect,0.225000X0.250000X-0.225000X0.250000X0.225000X-0.250000X0.225000X-0.250000X-0.225000X0*%
%ADD59RoundRect,0.218750X0.256250X-0.218750X0.256250X0.218750X-0.256250X0.218750X-0.256250X-0.218750X0*%
%ADD60RoundRect,0.250000X0.650000X-0.325000X0.650000X0.325000X-0.650000X0.325000X-0.650000X-0.325000X0*%
%ADD61RoundRect,0.250000X-0.325000X-0.650000X0.325000X-0.650000X0.325000X0.650000X-0.325000X0.650000X0*%
%ADD62RoundRect,0.225000X-0.225000X-0.375000X0.225000X-0.375000X0.225000X0.375000X-0.225000X0.375000X0*%
%ADD63RoundRect,0.225000X0.225000X0.375000X-0.225000X0.375000X-0.225000X-0.375000X0.225000X-0.375000X0*%
%ADD64FreePoly2,270.000000*%
%ADD65FreePoly3,270.000000*%
%ADD66RoundRect,0.200000X0.275000X-0.200000X0.275000X0.200000X-0.275000X0.200000X-0.275000X-0.200000X0*%
%ADD67RoundRect,0.276316X0.773684X1.473684X-0.773684X1.473684X-0.773684X-1.473684X0.773684X-1.473684X0*%
G04 APERTURE END LIST*
D10*
X179700000Y-52000000D02*
X195400000Y-52000000D01*
X195400000Y-58400000D01*
X179700000Y-58400000D01*
X179700000Y-52000000D01*
D11*
G36*
X181419295Y-56171793D02*
G01*
X180624040Y-56171793D01*
X180624040Y-56672002D01*
X181288136Y-56672002D01*
X181374354Y-56683868D01*
X181429553Y-56714867D01*
X181464452Y-56763911D01*
X181476570Y-56829050D01*
X181464275Y-56893914D01*
X181428820Y-56942501D01*
X181373344Y-56973014D01*
X181288136Y-56984633D01*
X180624040Y-56984633D01*
X180624040Y-57640181D01*
X180616576Y-57723146D01*
X180596582Y-57784472D01*
X180566154Y-57829347D01*
X180524246Y-57863602D01*
X180475533Y-57884136D01*
X180417899Y-57891263D01*
X180359402Y-57884056D01*
X180310228Y-57863339D01*
X180268178Y-57828859D01*
X180237734Y-57783650D01*
X180217818Y-57722554D01*
X180210415Y-57640669D01*
X180210415Y-56103283D01*
X180217626Y-56019921D01*
X180236793Y-55959057D01*
X180270773Y-55910392D01*
X180319591Y-55877114D01*
X180380498Y-55858369D01*
X180462962Y-55851346D01*
X181419295Y-55851346D01*
X181509253Y-55863598D01*
X181566207Y-55895432D01*
X181602204Y-55945679D01*
X181614567Y-56010837D01*
X181602138Y-56077257D01*
X181566207Y-56127707D01*
X181509253Y-56159541D01*
X181419295Y-56171793D01*
G37*
G36*
X182314200Y-56063227D02*
G01*
X182314200Y-57523921D01*
X183132658Y-57523921D01*
X183224263Y-57537030D01*
X183286287Y-57572159D01*
X183326639Y-57626415D01*
X183340143Y-57693304D01*
X183326663Y-57761164D01*
X183287020Y-57813960D01*
X183225546Y-57847358D01*
X183132658Y-57860000D01*
X182153122Y-57860000D01*
X182065640Y-57852099D01*
X182003356Y-57831269D01*
X181959804Y-57800038D01*
X181928916Y-57756129D01*
X181908353Y-57693883D01*
X181900575Y-57607086D01*
X181900575Y-56062494D01*
X181907805Y-55981162D01*
X181927266Y-55920267D01*
X181956995Y-55875038D01*
X181998181Y-55840397D01*
X182046869Y-55819545D01*
X182105373Y-55812267D01*
X182164769Y-55819501D01*
X182214318Y-55840216D01*
X182256315Y-55874549D01*
X182286780Y-55919560D01*
X182306757Y-55980766D01*
X182314200Y-56063227D01*
G37*
G36*
X184922592Y-56171793D02*
G01*
X184012543Y-56171793D01*
X184012543Y-56656371D01*
X184850174Y-56656371D01*
X184936415Y-56668176D01*
X184991591Y-56698991D01*
X185026562Y-56747699D01*
X185038607Y-56811343D01*
X185026769Y-56875284D01*
X184992323Y-56925038D01*
X184937450Y-56956790D01*
X184850174Y-56969002D01*
X184012543Y-56969002D01*
X184012543Y-57531737D01*
X184953977Y-57531737D01*
X185042854Y-57544193D01*
X185100889Y-57577044D01*
X185137807Y-57628816D01*
X185150593Y-57697212D01*
X185137931Y-57763314D01*
X185100889Y-57814815D01*
X185042866Y-57847574D01*
X184953977Y-57860000D01*
X183851465Y-57860000D01*
X183763970Y-57852112D01*
X183701688Y-57831322D01*
X183658147Y-57800160D01*
X183627249Y-57756332D01*
X183606692Y-57694239D01*
X183598918Y-57607697D01*
X183598918Y-56103649D01*
X183606129Y-56020164D01*
X183625296Y-55959180D01*
X183659272Y-55910488D01*
X183708094Y-55877114D01*
X183769001Y-55858369D01*
X183851465Y-55851346D01*
X184922592Y-55851346D01*
X185012443Y-55863594D01*
X185069382Y-55895432D01*
X185105379Y-55945679D01*
X185117742Y-56010837D01*
X185105314Y-56077257D01*
X185069382Y-56127707D01*
X185012443Y-56159545D01*
X184922592Y-56171793D01*
G37*
G36*
X185391905Y-57463227D02*
G01*
X185838503Y-56813297D01*
X185462857Y-56231144D01*
X185382501Y-56084354D01*
X185362084Y-56022710D01*
X185355635Y-55965652D01*
X185368144Y-55910683D01*
X185408025Y-55859406D01*
X185465694Y-55824246D01*
X185535764Y-55812267D01*
X185614435Y-55825747D01*
X185670097Y-55863314D01*
X185720238Y-55926371D01*
X185801378Y-56050893D01*
X186098743Y-56535715D01*
X186416503Y-56050893D01*
X186484159Y-55944769D01*
X186538625Y-55871252D01*
X186597854Y-55827166D01*
X186632422Y-55816160D01*
X186673813Y-55812267D01*
X186745922Y-55824460D01*
X186801552Y-55859406D01*
X186839008Y-55911253D01*
X186851256Y-55971147D01*
X186842244Y-56031136D01*
X186810209Y-56112700D01*
X186745498Y-56223084D01*
X186352023Y-56813419D01*
X186775540Y-57463227D01*
X186859193Y-57606231D01*
X186879220Y-57663193D01*
X186885450Y-57714431D01*
X186879437Y-57761395D01*
X186861636Y-57803702D01*
X186833253Y-57839605D01*
X186794591Y-57867571D01*
X186749186Y-57885199D01*
X186697138Y-57891263D01*
X186641814Y-57884851D01*
X186598220Y-57866960D01*
X186561361Y-57839499D01*
X186532885Y-57806877D01*
X186441050Y-57668757D01*
X186091782Y-57120799D01*
X185720778Y-57685122D01*
X185658496Y-57780743D01*
X185613555Y-57834476D01*
X185550907Y-57875997D01*
X185512686Y-57887239D01*
X185466032Y-57891263D01*
X185396242Y-57879436D01*
X185340980Y-57845223D01*
X185304647Y-57791079D01*
X185291399Y-57711744D01*
X185300544Y-57646170D01*
X185331614Y-57564902D01*
X185391905Y-57463227D01*
G37*
G36*
X188834141Y-57221671D02*
G01*
X188822957Y-57318825D01*
X188786636Y-57429888D01*
X188727550Y-57537941D01*
X188637648Y-57649340D01*
X188565566Y-57715128D01*
X188479687Y-57773415D01*
X188378262Y-57824096D01*
X188270989Y-57860440D01*
X188149190Y-57883262D01*
X188010554Y-57891263D01*
X187855509Y-57883414D01*
X187721249Y-57861221D01*
X187595806Y-57822504D01*
X187484455Y-57767920D01*
X187383575Y-57695382D01*
X187288939Y-57600736D01*
X187215553Y-57500864D01*
X187153018Y-57388489D01*
X187104086Y-57267880D01*
X187068754Y-57138140D01*
X187047853Y-57002582D01*
X187040666Y-56855551D01*
X187048982Y-56694856D01*
X187072902Y-56550563D01*
X187111252Y-56420676D01*
X187166022Y-56297093D01*
X187233472Y-56187962D01*
X187313729Y-56091803D01*
X187406667Y-56007891D01*
X187509242Y-55938732D01*
X187622452Y-55883709D01*
X187742212Y-55844222D01*
X187867545Y-55820349D01*
X187999563Y-55812267D01*
X188160035Y-55823602D01*
X188304181Y-55856381D01*
X188434560Y-55909598D01*
X188555590Y-55982281D01*
X188651962Y-56062578D01*
X188726919Y-56150544D01*
X188786029Y-56249879D01*
X188818463Y-56339599D01*
X188828646Y-56422264D01*
X188816198Y-56488951D01*
X188778332Y-56547927D01*
X188722551Y-56588808D01*
X188656699Y-56602271D01*
X188584320Y-56591892D01*
X188537508Y-56564535D01*
X188499323Y-56518712D01*
X188449703Y-56435819D01*
X188391357Y-56341310D01*
X188329648Y-56268420D01*
X188264567Y-56213925D01*
X188190461Y-56174075D01*
X188104005Y-56149266D01*
X188002372Y-56140530D01*
X187882373Y-56152831D01*
X187778535Y-56188255D01*
X187687440Y-56246481D01*
X187606943Y-56329696D01*
X187546279Y-56426703D01*
X187500308Y-56545687D01*
X187470536Y-56691095D01*
X187459787Y-56868251D01*
X187467915Y-57023286D01*
X187490412Y-57151229D01*
X187525000Y-57256353D01*
X187576258Y-57353367D01*
X187637650Y-57429204D01*
X187709403Y-57486919D01*
X187791843Y-57528585D01*
X187884200Y-57554142D01*
X187988695Y-57563000D01*
X188101695Y-57552817D01*
X188198480Y-57523765D01*
X188282152Y-57476782D01*
X188353674Y-57412345D01*
X188414008Y-57328923D01*
X188463136Y-57223136D01*
X188493623Y-57148091D01*
X188528227Y-57092100D01*
X188557920Y-57064782D01*
X188598606Y-57047447D01*
X188654012Y-57041053D01*
X188722747Y-57054021D01*
X188781018Y-57092955D01*
X188820735Y-57150720D01*
X188834141Y-57221671D01*
G37*
G36*
X190197682Y-55820861D02*
G01*
X190338030Y-55845578D01*
X190464177Y-55885243D01*
X190577913Y-55939274D01*
X190683586Y-56009659D01*
X190774733Y-56092664D01*
X190852525Y-56189046D01*
X190917533Y-56300143D01*
X190980045Y-56459915D01*
X191019129Y-56641596D01*
X191032815Y-56849078D01*
X191025437Y-57003291D01*
X191004089Y-57143919D01*
X190969678Y-57272473D01*
X190919982Y-57395301D01*
X190856938Y-57505081D01*
X190780390Y-57603178D01*
X190690424Y-57688662D01*
X190587516Y-57759877D01*
X190470202Y-57817257D01*
X190345593Y-57857421D01*
X190206025Y-57882514D01*
X190049249Y-57891263D01*
X189893568Y-57882339D01*
X189753483Y-57856611D01*
X189626953Y-57815181D01*
X189507809Y-57756510D01*
X189404517Y-57684994D01*
X189315422Y-57600369D01*
X189239880Y-57503091D01*
X189176981Y-57392499D01*
X189126744Y-57266978D01*
X189091760Y-57135790D01*
X189070323Y-56995924D01*
X189062997Y-56846270D01*
X189482117Y-56846270D01*
X189493292Y-57011917D01*
X189524982Y-57154626D01*
X189578050Y-57283271D01*
X189645760Y-57382871D01*
X189730395Y-57462593D01*
X189824790Y-57518182D01*
X189929521Y-57551550D01*
X190046563Y-57563000D01*
X190147489Y-57554282D01*
X190241654Y-57528540D01*
X190330617Y-57485575D01*
X190409207Y-57426286D01*
X190477852Y-57347475D01*
X190536880Y-57245973D01*
X190577961Y-57135226D01*
X190604285Y-57003310D01*
X190613695Y-56846270D01*
X190605217Y-56701081D01*
X190581173Y-56575197D01*
X190543108Y-56465861D01*
X190487854Y-56365171D01*
X190420844Y-56285067D01*
X190341608Y-56222840D01*
X190251223Y-56177569D01*
X190151751Y-56150011D01*
X190041067Y-56140530D01*
X189923873Y-56152128D01*
X189817951Y-56186081D01*
X189722934Y-56241857D01*
X189641730Y-56318705D01*
X189577238Y-56414826D01*
X189524982Y-56541454D01*
X189493311Y-56682081D01*
X189482117Y-56846270D01*
X189062997Y-56846270D01*
X189070698Y-56693097D01*
X189093099Y-56551980D01*
X189129431Y-56421531D01*
X189181457Y-56296927D01*
X189245741Y-56187735D01*
X189322260Y-56092292D01*
X189411932Y-56009253D01*
X189513932Y-55940061D01*
X189629640Y-55884319D01*
X189752366Y-55845143D01*
X189888831Y-55820747D01*
X190041067Y-55812267D01*
X190197682Y-55820861D01*
G37*
G36*
X192515614Y-55863070D02*
G01*
X192609720Y-55881100D01*
X192691468Y-55910453D01*
X192780760Y-55958653D01*
X192859263Y-56024148D01*
X192923433Y-56104035D01*
X192970150Y-56196095D01*
X192998538Y-56296410D01*
X193008129Y-56403579D01*
X192999409Y-56514916D01*
X192974666Y-56610060D01*
X192935126Y-56691829D01*
X192880757Y-56762372D01*
X192788114Y-56839264D01*
X192665448Y-56902478D01*
X192505844Y-56950439D01*
X192601192Y-57014973D01*
X192703681Y-57115547D01*
X192797094Y-57231582D01*
X192879658Y-57354539D01*
X192950816Y-57479448D01*
X193000314Y-57583517D01*
X193035419Y-57679121D01*
X193043545Y-57724811D01*
X193037326Y-57764497D01*
X193017655Y-57805411D01*
X192987320Y-57840899D01*
X192947191Y-57868304D01*
X192900141Y-57885303D01*
X192844242Y-57891263D01*
X192778902Y-57882712D01*
X192727494Y-57858656D01*
X192683828Y-57821924D01*
X192646528Y-57776346D01*
X192555425Y-57631022D01*
X192392759Y-57360401D01*
X192305133Y-57222362D01*
X192236933Y-57134476D01*
X192165197Y-57067212D01*
X192098203Y-57028719D01*
X192022756Y-57008041D01*
X191920760Y-57000265D01*
X191782519Y-57000265D01*
X191782519Y-57640059D01*
X191775094Y-57724015D01*
X191755303Y-57785494D01*
X191725366Y-57829958D01*
X191683920Y-57863752D01*
X191635049Y-57884143D01*
X191576500Y-57891263D01*
X191513490Y-57883644D01*
X191463415Y-57862253D01*
X191423237Y-57827393D01*
X191394628Y-57781628D01*
X191375933Y-57720851D01*
X191369016Y-57640669D01*
X191369016Y-56703265D01*
X191782519Y-56703265D01*
X192142044Y-56703265D01*
X192281791Y-56696435D01*
X192386653Y-56678353D01*
X192476253Y-56643416D01*
X192537229Y-56594089D01*
X192564979Y-56551605D01*
X192582623Y-56497995D01*
X192589009Y-56430202D01*
X192578343Y-56352712D01*
X192547243Y-56286465D01*
X192498000Y-56232577D01*
X192431594Y-56193653D01*
X192344017Y-56173416D01*
X192152913Y-56163977D01*
X191782519Y-56163977D01*
X191782519Y-56703265D01*
X191369016Y-56703265D01*
X191369016Y-56103283D01*
X191376856Y-56016970D01*
X191397608Y-55954990D01*
X191428855Y-55911186D01*
X191472813Y-55879942D01*
X191534994Y-55859188D01*
X191621563Y-55851346D01*
X192281385Y-55851346D01*
X192515614Y-55863070D01*
G37*
G36*
X194707937Y-56171793D02*
G01*
X193797889Y-56171793D01*
X193797889Y-56656371D01*
X194635519Y-56656371D01*
X194721761Y-56668176D01*
X194776936Y-56698991D01*
X194811907Y-56747699D01*
X194823953Y-56811343D01*
X194812115Y-56875284D01*
X194777669Y-56925038D01*
X194722795Y-56956790D01*
X194635519Y-56969002D01*
X193797889Y-56969002D01*
X193797889Y-57531737D01*
X194739323Y-57531737D01*
X194828200Y-57544193D01*
X194886235Y-57577044D01*
X194923152Y-57628816D01*
X194935938Y-57697212D01*
X194923277Y-57763314D01*
X194886235Y-57814815D01*
X194828212Y-57847574D01*
X194739323Y-57860000D01*
X193636810Y-57860000D01*
X193549316Y-57852112D01*
X193487034Y-57831322D01*
X193443492Y-57800160D01*
X193412595Y-57756332D01*
X193392037Y-57694239D01*
X193384263Y-57607697D01*
X193384263Y-56103649D01*
X193391474Y-56020164D01*
X193410642Y-55959180D01*
X193444617Y-55910488D01*
X193493440Y-55877114D01*
X193554347Y-55858369D01*
X193636810Y-55851346D01*
X194707937Y-55851346D01*
X194797788Y-55863594D01*
X194854727Y-55895432D01*
X194890724Y-55945679D01*
X194903087Y-56010837D01*
X194890659Y-56077257D01*
X194854727Y-56127707D01*
X194797788Y-56159545D01*
X194707937Y-56171793D01*
G37*
G36*
X180312010Y-54343673D02*
G01*
X180312010Y-52985601D01*
X180322201Y-52871161D01*
X180349637Y-52785465D01*
X180391562Y-52721804D01*
X180449634Y-52672960D01*
X180518285Y-52643559D01*
X180600775Y-52633297D01*
X180687058Y-52643711D01*
X180757464Y-52673255D01*
X180815669Y-52721804D01*
X180857595Y-52785574D01*
X180885031Y-52871385D01*
X180895222Y-52985945D01*
X180895222Y-54376389D01*
X180909601Y-54602260D01*
X180947740Y-54770535D01*
X180992340Y-54868838D01*
X181053890Y-54949549D01*
X181133534Y-55015046D01*
X181226684Y-55060537D01*
X181348966Y-55090666D01*
X181508050Y-55101830D01*
X181675273Y-55088637D01*
X181804244Y-55052825D01*
X181903082Y-54998113D01*
X181977788Y-54925334D01*
X182049138Y-54799678D01*
X182097098Y-54625524D01*
X182115196Y-54387926D01*
X182115196Y-52985945D01*
X182125334Y-52869992D01*
X182152487Y-52784026D01*
X182193715Y-52720943D01*
X182251243Y-52672742D01*
X182320171Y-52643546D01*
X182403961Y-52633297D01*
X182487735Y-52643463D01*
X182557600Y-52672566D01*
X182616789Y-52720770D01*
X182659758Y-52784013D01*
X182687918Y-52869980D01*
X182698408Y-52985773D01*
X182698408Y-54344706D01*
X182680598Y-54662797D01*
X182633492Y-54899850D01*
X182577942Y-55041245D01*
X182496950Y-55171155D01*
X182388464Y-55291241D01*
X182279685Y-55377571D01*
X182159999Y-55446733D01*
X182028068Y-55499248D01*
X181813163Y-55547277D01*
X181548515Y-55564680D01*
X181331048Y-55556031D01*
X181144846Y-55531770D01*
X180985966Y-55494082D01*
X180834405Y-55436454D01*
X180707085Y-55363323D01*
X180600775Y-55275055D01*
X180511777Y-55169408D01*
X180438698Y-55043900D01*
X180381747Y-54895545D01*
X180330763Y-54652168D01*
X180312010Y-54343673D01*
G37*
G36*
X185462766Y-54664637D02*
G01*
X185447654Y-54832296D01*
X185403360Y-54985498D01*
X185329834Y-55127315D01*
X185230001Y-55251890D01*
X185101974Y-55358803D01*
X184941543Y-55448624D01*
X184767482Y-55511252D01*
X184567162Y-55550759D01*
X184336118Y-55564680D01*
X184059971Y-55545236D01*
X183832009Y-55491060D01*
X183643738Y-55406437D01*
X183522412Y-55321698D01*
X183417784Y-55220468D01*
X183328628Y-55101486D01*
X183259089Y-54970188D01*
X183219947Y-54847165D01*
X183207405Y-54729897D01*
X183225884Y-54631376D01*
X183281275Y-54548064D01*
X183364271Y-54491607D01*
X183469136Y-54472299D01*
X183555228Y-54487265D01*
X183625658Y-54531189D01*
X183682407Y-54600147D01*
X183734482Y-54704930D01*
X183792303Y-54832255D01*
X183850023Y-54928951D01*
X183923143Y-55009413D01*
X184024625Y-55076863D01*
X184147676Y-55118936D01*
X184320621Y-55134891D01*
X184485246Y-55120621D01*
X184619754Y-55080776D01*
X184730092Y-55017801D01*
X184819443Y-54930732D01*
X184870266Y-54834909D01*
X184887303Y-54726281D01*
X184877354Y-54637441D01*
X184849054Y-54563651D01*
X184802757Y-54501572D01*
X184707857Y-54426618D01*
X184583213Y-54369157D01*
X184221267Y-54271180D01*
X183930076Y-54190087D01*
X183710031Y-54103982D01*
X183579929Y-54030753D01*
X183471628Y-53943546D01*
X183382696Y-53841907D01*
X183316811Y-53725655D01*
X183275884Y-53589641D01*
X183261473Y-53429165D01*
X183276056Y-53276543D01*
X183318715Y-53138407D01*
X183389583Y-53011601D01*
X183485077Y-52901739D01*
X183607058Y-52808377D01*
X183759795Y-52731274D01*
X183924025Y-52678442D01*
X184112294Y-52645056D01*
X184328370Y-52633297D01*
X184579374Y-52650681D01*
X184780027Y-52698386D01*
X184958367Y-52776141D01*
X185096687Y-52871093D01*
X185208537Y-52984769D01*
X185281104Y-53097525D01*
X185325445Y-53217039D01*
X185339477Y-53329294D01*
X185321325Y-53427668D01*
X185265607Y-53517327D01*
X185211909Y-53564136D01*
X185151369Y-53591620D01*
X185081534Y-53601012D01*
X184989863Y-53587545D01*
X184928973Y-53551593D01*
X184878935Y-53492472D01*
X184816532Y-53390766D01*
X184729502Y-53244355D01*
X184633148Y-53141261D01*
X184556510Y-53095358D01*
X184445885Y-53064051D01*
X184289799Y-53052066D01*
X184146099Y-53063887D01*
X184030019Y-53096665D01*
X183936118Y-53147977D01*
X183859001Y-53219466D01*
X183816207Y-53295065D01*
X183802154Y-53377852D01*
X183813740Y-53455912D01*
X183847440Y-53521115D01*
X183899930Y-53576173D01*
X183972795Y-53625463D01*
X184135516Y-53694340D01*
X184408783Y-53767349D01*
X184641618Y-53827557D01*
X184841844Y-53890810D01*
X185026014Y-53967978D01*
X185172623Y-54055425D01*
X185294344Y-54165181D01*
X185385968Y-54300797D01*
X185427231Y-54402650D01*
X185453446Y-54522763D01*
X185462766Y-54664637D01*
G37*
G36*
X187396357Y-52695181D02*
G01*
X187551961Y-52713538D01*
X187694812Y-52750912D01*
X187819374Y-52810654D01*
X187914338Y-52878364D01*
X187998109Y-52962527D01*
X188066657Y-53059517D01*
X188116576Y-53165885D01*
X188147071Y-53279661D01*
X188157386Y-53401098D01*
X188140411Y-53563916D01*
X188091748Y-53703015D01*
X188011983Y-53823462D01*
X187897989Y-53928342D01*
X187743266Y-54018403D01*
X187920255Y-54091117D01*
X188056055Y-54179840D01*
X188157770Y-54283757D01*
X188230047Y-54404177D01*
X188274659Y-54544408D01*
X188290317Y-54709407D01*
X188276428Y-54864911D01*
X188235692Y-55007304D01*
X188168062Y-55139368D01*
X188076749Y-55256027D01*
X187967465Y-55349567D01*
X187838143Y-55421762D01*
X187702156Y-55467125D01*
X187540080Y-55498387D01*
X187365170Y-55514636D01*
X187148173Y-55520600D01*
X186285323Y-55520600D01*
X186161934Y-55509331D01*
X186074800Y-55479706D01*
X186014466Y-55435365D01*
X185971954Y-55373157D01*
X185943686Y-55285767D01*
X185933020Y-55164852D01*
X185933020Y-55079790D01*
X186516059Y-55079790D01*
X187125099Y-55079790D01*
X187324368Y-55064566D01*
X187468594Y-55024402D01*
X187570956Y-54964966D01*
X187641131Y-54887891D01*
X187684148Y-54790472D01*
X187699529Y-54666187D01*
X187681619Y-54533241D01*
X187632095Y-54433838D01*
X187551273Y-54359514D01*
X187447542Y-54310479D01*
X187303078Y-54277000D01*
X187105814Y-54264292D01*
X186516059Y-54264292D01*
X186516059Y-55079790D01*
X185933020Y-55079790D01*
X185933020Y-53845523D01*
X186516059Y-53845523D01*
X187034527Y-53845523D01*
X187235015Y-53834056D01*
X187362551Y-53805747D01*
X187433160Y-53771332D01*
X187491251Y-53721503D01*
X187538358Y-53654391D01*
X187573828Y-53570967D01*
X187585883Y-53476862D01*
X187567223Y-53346576D01*
X187517021Y-53257472D01*
X187435732Y-53198257D01*
X187332589Y-53163365D01*
X187183537Y-53138723D01*
X186974949Y-53129208D01*
X186516059Y-53129208D01*
X186516059Y-53845523D01*
X185933020Y-53845523D01*
X185933020Y-53044146D01*
X185944045Y-52920814D01*
X185973082Y-52833121D01*
X186016532Y-52771911D01*
X186077778Y-52728315D01*
X186164497Y-52699347D01*
X186285323Y-52688399D01*
X187200175Y-52688399D01*
X187396357Y-52695181D01*
G37*
G36*
X191169802Y-52702932D02*
G01*
X191364791Y-52738678D01*
X191528735Y-52803688D01*
X191666470Y-52899333D01*
X191778003Y-53023615D01*
X191859669Y-53174150D01*
X191908530Y-53343308D01*
X191925618Y-53539195D01*
X191907001Y-53752901D01*
X191854823Y-53928947D01*
X191772039Y-54074665D01*
X191658033Y-54195244D01*
X191520166Y-54286689D01*
X191347014Y-54356440D01*
X191130891Y-54401994D01*
X190862510Y-54418576D01*
X190344042Y-54418576D01*
X190344042Y-55211172D01*
X190333621Y-55323833D01*
X190305313Y-55409601D01*
X190261562Y-55474624D01*
X190201680Y-55524713D01*
X190133229Y-55554444D01*
X190053383Y-55564680D01*
X189969648Y-55554324D01*
X189900040Y-55524677D01*
X189841244Y-55475485D01*
X189798629Y-55411299D01*
X189771008Y-55326542D01*
X189760830Y-55215132D01*
X189760830Y-53977766D01*
X190344042Y-53977766D01*
X190723724Y-53977766D01*
X190916371Y-53966337D01*
X191059669Y-53936096D01*
X191180523Y-53879507D01*
X191264404Y-53799721D01*
X191315884Y-53694525D01*
X191334658Y-53551593D01*
X191321867Y-53433271D01*
X191285538Y-53334904D01*
X191226350Y-53252153D01*
X191162945Y-53205441D01*
X191066190Y-53166912D01*
X190924487Y-53139732D01*
X190723724Y-53129208D01*
X190344042Y-53129208D01*
X190344042Y-53977766D01*
X189760830Y-53977766D01*
X189760830Y-53043629D01*
X189772462Y-52919471D01*
X189803104Y-52831659D01*
X189849164Y-52770706D01*
X189913327Y-52727806D01*
X190003556Y-52699203D01*
X190128459Y-52688399D01*
X190862337Y-52688399D01*
X191169802Y-52702932D01*
G37*
G36*
X193778178Y-52703010D02*
G01*
X193997939Y-52742467D01*
X194132260Y-52788725D01*
X194258337Y-52855971D01*
X194377449Y-52945480D01*
X194507413Y-53076286D01*
X194615087Y-53227466D01*
X194701256Y-53401466D01*
X194765489Y-53601628D01*
X194806154Y-53832046D01*
X194820497Y-54097439D01*
X194808903Y-54346138D01*
X194776071Y-54562700D01*
X194718628Y-54765500D01*
X194638835Y-54942554D01*
X194533216Y-55102497D01*
X194400695Y-55245438D01*
X194280751Y-55337563D01*
X194150845Y-55409020D01*
X194011302Y-55461195D01*
X193859670Y-55495632D01*
X193699088Y-55514001D01*
X193508916Y-55520600D01*
X192763328Y-55520600D01*
X192616894Y-55506875D01*
X192525188Y-55472558D01*
X192458475Y-55414340D01*
X192420151Y-55337388D01*
X192402508Y-55243859D01*
X192395700Y-55112851D01*
X192395700Y-55057750D01*
X192978912Y-55057750D01*
X193406807Y-55057750D01*
X193629450Y-55050173D01*
X193795787Y-55011947D01*
X193876737Y-54974725D01*
X193944560Y-54926195D01*
X194039636Y-54825843D01*
X194117176Y-54698449D01*
X194176637Y-54538750D01*
X194215548Y-54339907D01*
X194229709Y-54093823D01*
X194212869Y-53816686D01*
X194168660Y-53614689D01*
X194104353Y-53470663D01*
X194010097Y-53344990D01*
X193907712Y-53259537D01*
X193795615Y-53207727D01*
X193601635Y-53166532D01*
X193351017Y-53151248D01*
X192978912Y-53151248D01*
X192978912Y-55057750D01*
X192395700Y-55057750D01*
X192395700Y-53044146D01*
X192406776Y-52922221D01*
X192436096Y-52834661D01*
X192480246Y-52772772D01*
X192542227Y-52728719D01*
X192629902Y-52699455D01*
X192751964Y-52688399D01*
X193497379Y-52688399D01*
X193778178Y-52703010D01*
G37*
%TO.C,JP5*%
G36*
X184250000Y-108250000D02*
G01*
X182750000Y-108250000D01*
X182750000Y-109750000D01*
X184250000Y-109750000D01*
X184250000Y-108250000D01*
G37*
D12*
%TO.C,G\u002A\u002A\u002A*%
G36*
X149162420Y-96822499D02*
G01*
X149165000Y-97415000D01*
X149585000Y-97415000D01*
X150005000Y-97415000D01*
X150007579Y-96822500D01*
X150010158Y-96230000D01*
X150245000Y-96229999D01*
X150479841Y-96229999D01*
X150482420Y-96822499D01*
X150485000Y-97415000D01*
X150887420Y-97417613D01*
X151289840Y-97420226D01*
X151292420Y-96832613D01*
X151295000Y-96245000D01*
X151532419Y-96242319D01*
X151769839Y-96239638D01*
X151772419Y-96827319D01*
X151775000Y-97415000D01*
X152030260Y-97420000D01*
X152285520Y-97425000D01*
X152353056Y-97458272D01*
X152430686Y-97507376D01*
X152496175Y-97571321D01*
X152546882Y-97647462D01*
X152551917Y-97657433D01*
X152584919Y-97725000D01*
X152588333Y-97932500D01*
X152591747Y-98140000D01*
X153170873Y-98140000D01*
X153750000Y-98140000D01*
X153750000Y-98375000D01*
X153750000Y-98610000D01*
X153170000Y-98610000D01*
X152590000Y-98610000D01*
X152590000Y-99060000D01*
X152590000Y-99510000D01*
X153170000Y-99510000D01*
X153750000Y-99510000D01*
X153750000Y-99745000D01*
X153750000Y-99980000D01*
X153170000Y-99980000D01*
X152590000Y-99980000D01*
X152590000Y-100425000D01*
X152590000Y-100870000D01*
X153170000Y-100870000D01*
X153750000Y-100870000D01*
X153750000Y-101110000D01*
X153750000Y-101350000D01*
X153170711Y-101350000D01*
X152591422Y-101350000D01*
X152588211Y-101562500D01*
X152585000Y-101775000D01*
X152553150Y-101842233D01*
X152504803Y-101922428D01*
X152442989Y-101988576D01*
X152369188Y-102039427D01*
X152284880Y-102073730D01*
X152276498Y-102076050D01*
X152247992Y-102081325D01*
X152206195Y-102085260D01*
X152149378Y-102087940D01*
X152075810Y-102089451D01*
X151997500Y-102089881D01*
X151770000Y-102090000D01*
X151770000Y-102680000D01*
X151770000Y-103270000D01*
X151540000Y-103270000D01*
X151310000Y-103270000D01*
X151310000Y-102680000D01*
X151310000Y-102090000D01*
X150895000Y-102090000D01*
X150480000Y-102090000D01*
X150480000Y-102680000D01*
X150480000Y-103270000D01*
X150245000Y-103270000D01*
X150010000Y-103270000D01*
X150010000Y-102680000D01*
X150010000Y-102090000D01*
X149590000Y-102090000D01*
X149170000Y-102090000D01*
X149170000Y-102675000D01*
X149170000Y-103260000D01*
X148940000Y-103260000D01*
X148710000Y-103260000D01*
X148710000Y-102675000D01*
X148710000Y-102090000D01*
X148497500Y-102089881D01*
X148408889Y-102089206D01*
X148338710Y-102087239D01*
X148285429Y-102083900D01*
X148247515Y-102079107D01*
X148233501Y-102076050D01*
X148148284Y-102043362D01*
X148073436Y-101994008D01*
X148010437Y-101929239D01*
X147960766Y-101850307D01*
X147956849Y-101842233D01*
X147925000Y-101775000D01*
X147921800Y-101557500D01*
X147918601Y-101340000D01*
X147334300Y-101340000D01*
X146750000Y-101340000D01*
X146750000Y-101105000D01*
X147930000Y-101105000D01*
X147930000Y-101330000D01*
X148527596Y-101330000D01*
X149125192Y-101330000D01*
X149320096Y-101134239D01*
X149515000Y-100938479D01*
X149562197Y-100943732D01*
X149631343Y-100943955D01*
X149704376Y-100931368D01*
X149775521Y-100907887D01*
X149839006Y-100875429D01*
X149889058Y-100835909D01*
X149890000Y-100834938D01*
X149925000Y-100798606D01*
X149895000Y-100776848D01*
X149880734Y-100765153D01*
X149853857Y-100741865D01*
X149816499Y-100708910D01*
X149770791Y-100668209D01*
X149718864Y-100621687D01*
X149662848Y-100571266D01*
X149604875Y-100518872D01*
X149547075Y-100466426D01*
X149491578Y-100415853D01*
X149440516Y-100369076D01*
X149396018Y-100328019D01*
X149360217Y-100294605D01*
X149348009Y-100283049D01*
X149291018Y-100228767D01*
X149260834Y-100270435D01*
X149225255Y-100327710D01*
X149201846Y-100386773D01*
X149188912Y-100453364D01*
X149184790Y-100527906D01*
X149183889Y-100630812D01*
X149059594Y-100755406D01*
X148935300Y-100880000D01*
X148432650Y-100880000D01*
X147930000Y-100880000D01*
X147930000Y-101105000D01*
X146750000Y-101105000D01*
X146750000Y-100880000D01*
X146750000Y-100870000D01*
X147335000Y-100870000D01*
X147920000Y-100870000D01*
X147920000Y-100425000D01*
X147920000Y-99980000D01*
X147335000Y-99980000D01*
X146750000Y-99980000D01*
X146750000Y-99745000D01*
X146750000Y-99510000D01*
X147335000Y-99510000D01*
X147920000Y-99510000D01*
X147920000Y-99152894D01*
X148815941Y-99152894D01*
X148816671Y-99237287D01*
X148823387Y-99322065D01*
X148835938Y-99401045D01*
X148843177Y-99432007D01*
X148890598Y-99577955D01*
X148956733Y-99726377D01*
X149040723Y-99875635D01*
X149141707Y-100024093D01*
X149180738Y-100075344D01*
X149219960Y-100125384D01*
X149249045Y-100161416D01*
X149270375Y-100185028D01*
X149286332Y-100197807D01*
X149299300Y-100201341D01*
X149311661Y-100197220D01*
X149325797Y-100187032D01*
X149335945Y-100178809D01*
X149409957Y-100131188D01*
X149489839Y-100101093D01*
X149572942Y-100087956D01*
X149656620Y-100091207D01*
X149738224Y-100110278D01*
X149815106Y-100144598D01*
X149884619Y-100193600D01*
X149944114Y-100256713D01*
X149983217Y-100317928D01*
X150018922Y-100403965D01*
X150034912Y-100489400D01*
X150031187Y-100575325D01*
X150007747Y-100662836D01*
X149983154Y-100718686D01*
X149946055Y-100792372D01*
X149974505Y-100813686D01*
X150021577Y-100848164D01*
X150071208Y-100883169D01*
X150120571Y-100916856D01*
X150166839Y-100947385D01*
X150207186Y-100972911D01*
X150238785Y-100991592D01*
X150258810Y-101001586D01*
X150264249Y-101002570D01*
X150276414Y-100994594D01*
X150301299Y-100977824D01*
X150335147Y-100954802D01*
X150370000Y-100930958D01*
X150579421Y-100781042D01*
X150771778Y-100630407D01*
X150946798Y-100479393D01*
X151104208Y-100328338D01*
X151243733Y-100177584D01*
X151365100Y-100027469D01*
X151468037Y-99878334D01*
X151552269Y-99730519D01*
X151617523Y-99584363D01*
X151663527Y-99440206D01*
X151690005Y-99298388D01*
X151691098Y-99288767D01*
X151696125Y-99162187D01*
X151682899Y-99043386D01*
X151651511Y-98932643D01*
X151602052Y-98830239D01*
X151534612Y-98736453D01*
X151500002Y-98698737D01*
X151413663Y-98624269D01*
X151319115Y-98568031D01*
X151216518Y-98530092D01*
X151106030Y-98510516D01*
X151040000Y-98507599D01*
X150937663Y-98513827D01*
X150843415Y-98533547D01*
X150749141Y-98568523D01*
X150739271Y-98572987D01*
X150638096Y-98629189D01*
X150545968Y-98701067D01*
X150462112Y-98789453D01*
X150385757Y-98895180D01*
X150316129Y-99019078D01*
X150306267Y-99039179D01*
X150254426Y-99146671D01*
X150209713Y-99050877D01*
X150140647Y-98921038D01*
X150062838Y-98808387D01*
X149976652Y-98713192D01*
X149882453Y-98635719D01*
X149780606Y-98576238D01*
X149671475Y-98535015D01*
X149555424Y-98512319D01*
X149470000Y-98507599D01*
X149384633Y-98511950D01*
X149307022Y-98526352D01*
X149229635Y-98552644D01*
X149165918Y-98581921D01*
X149078914Y-98636351D01*
X149000625Y-98706979D01*
X148933126Y-98791138D01*
X148878489Y-98886163D01*
X148838789Y-98989386D01*
X148833028Y-99010000D01*
X148821343Y-99075070D01*
X148815941Y-99152894D01*
X147920000Y-99152894D01*
X147920000Y-99060000D01*
X147920000Y-98610000D01*
X147335000Y-98610000D01*
X146750000Y-98610000D01*
X146750000Y-98375000D01*
X146750000Y-98140000D01*
X147335000Y-98140000D01*
X147920000Y-98140000D01*
X147920000Y-97956053D01*
X147920317Y-97886627D01*
X147921474Y-97833365D01*
X147923777Y-97792439D01*
X147927531Y-97760018D01*
X147933041Y-97732276D01*
X147939822Y-97707929D01*
X147974290Y-97628629D01*
X148024860Y-97557815D01*
X148088377Y-97499733D01*
X148100926Y-97490969D01*
X148135049Y-97469259D01*
X148166620Y-97452450D01*
X148198899Y-97439924D01*
X148235148Y-97431066D01*
X148278630Y-97425261D01*
X148332605Y-97421892D01*
X148400335Y-97420345D01*
X148476815Y-97419999D01*
X148690000Y-97420000D01*
X148690000Y-96825000D01*
X148690000Y-96230000D01*
X148924920Y-96229999D01*
X149159841Y-96229999D01*
X149162420Y-96822499D01*
G37*
%TO.C,JP4*%
G36*
X184250000Y-113250000D02*
G01*
X182750000Y-113250000D01*
X182750000Y-114750000D01*
X184250000Y-114750000D01*
X184250000Y-113250000D01*
G37*
%TO.C,JP2*%
G36*
X180750000Y-118850000D02*
G01*
X179250000Y-118850000D01*
X179250000Y-119150000D01*
X180750000Y-119150000D01*
X180750000Y-118850000D01*
G37*
%TD*%
D13*
%TO.C,Q1*%
X164400000Y-121975000D03*
X164400000Y-121325000D03*
X164400000Y-120675000D03*
X164400000Y-120025000D03*
D14*
X161500000Y-120025000D03*
X161500000Y-120675000D03*
X161500000Y-121325000D03*
D15*
X163000000Y-122415000D03*
D14*
X161500000Y-121975000D03*
D16*
X162640000Y-121000000D03*
D15*
X163000000Y-119585000D03*
%TD*%
D17*
%TO.C,L3*%
X144788000Y-70595000D03*
X144788000Y-71865000D03*
X144788000Y-73135000D03*
X144788000Y-74405000D03*
X150212000Y-74405000D03*
X150212000Y-73135000D03*
X150212000Y-71865000D03*
X150212000Y-70595000D03*
%TD*%
D18*
%TO.C,JP19*%
X147500000Y-114790000D03*
D19*
X147500000Y-112250000D03*
X147500000Y-109710000D03*
%TD*%
D20*
%TO.C,J7*%
X163095000Y-73125000D03*
D21*
X166905000Y-73125000D03*
%TD*%
D22*
%TO.C,IC3*%
X134675000Y-100750000D03*
X133725000Y-100750000D03*
X132775000Y-100750000D03*
X132775000Y-103250000D03*
X133725000Y-103250000D03*
X134675000Y-103250000D03*
%TD*%
D23*
%TO.C,IC2*%
X191650000Y-70225000D03*
X191650000Y-68725000D03*
X191650000Y-67225000D03*
X188350000Y-67225000D03*
X188350000Y-70225000D03*
D24*
X189525000Y-68725000D03*
%TD*%
D25*
%TO.C,IC1*%
X176750000Y-110500000D03*
X177250000Y-110500000D03*
X177750000Y-110500000D03*
X178250000Y-110500000D03*
D26*
X179000000Y-109750000D03*
X179000000Y-109250000D03*
X179000000Y-108750000D03*
X179000000Y-108250000D03*
D25*
X178250000Y-107500000D03*
X177750000Y-107500000D03*
X177250000Y-107500000D03*
X176750000Y-107500000D03*
D26*
X176000000Y-108250000D03*
X176000000Y-108750000D03*
X176000000Y-109250000D03*
X176000000Y-109750000D03*
D20*
X177500000Y-109000000D03*
%TD*%
D27*
%TO.C,D6*%
X156550000Y-127000000D03*
X153450000Y-127000000D03*
%TD*%
D28*
%TO.C,C9*%
X137000000Y-103225000D03*
X137000000Y-104775000D03*
%TD*%
D29*
%TO.C,C13*%
X149275000Y-77500000D03*
X147725000Y-77500000D03*
%TD*%
D18*
%TO.C,JP10*%
X154500000Y-71040000D03*
D19*
X154500000Y-68500000D03*
X154500000Y-65960000D03*
%TD*%
D28*
%TO.C,C1*%
X174500000Y-111225000D03*
X174500000Y-112775000D03*
%TD*%
D18*
%TO.C,JP7*%
X136725000Y-119500000D03*
D19*
X139265000Y-119500000D03*
%TD*%
D30*
%TO.C,R15*%
X200675000Y-107000000D03*
X202325000Y-107000000D03*
%TD*%
%TO.C,R8*%
X200675000Y-91500000D03*
X202325000Y-91500000D03*
%TD*%
D31*
%TO.C,C16*%
X137500000Y-94525000D03*
X137500000Y-97475000D03*
%TD*%
D32*
%TO.C,R20*%
X180500000Y-64462500D03*
X180500000Y-61537500D03*
%TD*%
D33*
%TO.C,JP5*%
X183500000Y-107700000D03*
D34*
X183500000Y-109000000D03*
D35*
X183500000Y-110300000D03*
%TD*%
D18*
%TO.C,JP17*%
X179500000Y-71775000D03*
D19*
X179500000Y-69235000D03*
%TD*%
D36*
%TO.C,C3*%
X160475000Y-114010000D03*
X157525000Y-114010000D03*
%TD*%
D37*
%TO.C,R27*%
X142000000Y-71175000D03*
X142000000Y-72825000D03*
%TD*%
D38*
%TO.C,H1*%
X130000000Y-125000000D03*
D39*
X130000000Y-125000000D03*
%TD*%
D30*
%TO.C,R18*%
X145675000Y-62000000D03*
X147325000Y-62000000D03*
%TD*%
%TO.C,R29*%
X137675000Y-107500000D03*
X139325000Y-107500000D03*
%TD*%
D40*
%TO.C,J4*%
X185000000Y-124500000D03*
D41*
X187000000Y-124500000D03*
X189000000Y-124500000D03*
X191000000Y-124500000D03*
%TD*%
D18*
%TO.C,JP3*%
X177000000Y-103500000D03*
D19*
X177000000Y-100960000D03*
%TD*%
D30*
%TO.C,R14*%
X200675000Y-94000000D03*
X202325000Y-94000000D03*
%TD*%
D18*
%TO.C,JP22*%
X172500000Y-103500000D03*
D19*
X172500000Y-100960000D03*
%TD*%
D37*
%TO.C,R19*%
X192000000Y-78175000D03*
X192000000Y-79825000D03*
%TD*%
D42*
%TO.C,J12*%
X199000000Y-69000000D03*
D43*
X199000000Y-67000000D03*
%TD*%
D18*
%TO.C,J6*%
X194725000Y-104650000D03*
D19*
X194725000Y-107190000D03*
X194725000Y-109730000D03*
X194725000Y-112270000D03*
X194725000Y-114810000D03*
X194725000Y-117350000D03*
X197265000Y-104650000D03*
X197265000Y-107190000D03*
X197265000Y-109730000D03*
X197265000Y-112270000D03*
X197265000Y-114810000D03*
X197265000Y-117350000D03*
%TD*%
D28*
%TO.C,C2*%
X178500000Y-114725000D03*
X178500000Y-116275000D03*
%TD*%
D44*
%TO.C,L2*%
X134000000Y-90500000D03*
X139000000Y-90500000D03*
%TD*%
D30*
%TO.C,R24*%
X143175000Y-112500000D03*
X144825000Y-112500000D03*
%TD*%
%TO.C,R11*%
X200675000Y-109500000D03*
X202325000Y-109500000D03*
%TD*%
D45*
%TO.C,R4*%
X183500000Y-119087500D03*
X183500000Y-120912500D03*
%TD*%
D40*
%TO.C,J10*%
X137000000Y-124450000D03*
D41*
X139000000Y-124450000D03*
%TD*%
D38*
%TO.C,H2*%
X200000000Y-125000000D03*
D39*
X200000000Y-125000000D03*
%TD*%
D46*
%TO.C,TP2*%
X168000000Y-101500000D03*
%TD*%
D18*
%TO.C,JP1*%
X137500000Y-62225000D03*
D19*
X137500000Y-64765000D03*
%TD*%
D47*
%TO.C,D1*%
X167600000Y-122500000D03*
X170400000Y-122500000D03*
%TD*%
D36*
%TO.C,C5*%
X160475000Y-108990000D03*
X157525000Y-108990000D03*
%TD*%
D42*
%TO.C,J11*%
X130950000Y-64500000D03*
D43*
X130950000Y-62500000D03*
%TD*%
D18*
%TO.C,JP12*%
X160500000Y-57275000D03*
D19*
X160500000Y-54735000D03*
X163040000Y-57275000D03*
X163040000Y-54735000D03*
X165580000Y-57275000D03*
X165580000Y-54735000D03*
%TD*%
D45*
%TO.C,R1*%
X180250000Y-114587500D03*
X180250000Y-116412500D03*
%TD*%
D40*
%TO.C,J2*%
X175000000Y-124500000D03*
D41*
X177000000Y-124500000D03*
%TD*%
D30*
%TO.C,R13*%
X200675000Y-89000000D03*
X202325000Y-89000000D03*
%TD*%
%TO.C,R16*%
X200675000Y-112000000D03*
X202325000Y-112000000D03*
%TD*%
D48*
%TO.C,R6*%
X187325000Y-121000000D03*
X185675000Y-121000000D03*
%TD*%
D46*
%TO.C,TP3*%
X181500000Y-101500000D03*
%TD*%
D29*
%TO.C,C10*%
X134500000Y-109500000D03*
X132950000Y-109500000D03*
%TD*%
D49*
%TO.C,J1*%
X161800000Y-128320000D03*
X162600000Y-128320000D03*
D50*
X163750000Y-128320000D03*
X164750000Y-128320000D03*
X165250000Y-128320000D03*
X166250000Y-128320000D03*
D49*
X167400000Y-128320000D03*
X168200000Y-128320000D03*
X168200000Y-128320000D03*
X167400000Y-128320000D03*
D50*
X166750000Y-128320000D03*
X165750000Y-128320000D03*
X164250000Y-128320000D03*
X163250000Y-128320000D03*
D49*
X162600000Y-128320000D03*
X161800000Y-128320000D03*
D51*
X160680000Y-128895000D03*
D52*
X160680000Y-133075000D03*
D51*
X169320000Y-128895000D03*
D52*
X169320000Y-133075000D03*
%TD*%
D18*
%TO.C,J5*%
X194725000Y-86650000D03*
D19*
X194725000Y-89190000D03*
X194725000Y-91730000D03*
X194725000Y-94270000D03*
X194725000Y-96810000D03*
X194725000Y-99350000D03*
X197265000Y-86650000D03*
X197265000Y-89190000D03*
X197265000Y-91730000D03*
X197265000Y-94270000D03*
X197265000Y-96810000D03*
X197265000Y-99350000D03*
%TD*%
D30*
%TO.C,R9*%
X200675000Y-96500000D03*
X202325000Y-96500000D03*
%TD*%
D53*
%TO.C,U1*%
X142700000Y-59150000D03*
X145000000Y-59150000D03*
D54*
X145000000Y-52850000D03*
D53*
X147300000Y-59150000D03*
%TD*%
D30*
%TO.C,R12*%
X200675000Y-114500000D03*
X202325000Y-114500000D03*
%TD*%
D48*
%TO.C,R7*%
X187325000Y-118500000D03*
X185675000Y-118500000D03*
%TD*%
D29*
%TO.C,C14*%
X149275000Y-67500000D03*
X147725000Y-67500000D03*
%TD*%
D18*
%TO.C,JP13*%
X152225000Y-54725000D03*
D19*
X154765000Y-54725000D03*
X152225000Y-57265000D03*
X154765000Y-57265000D03*
%TD*%
D37*
%TO.C,R26*%
X129725000Y-104175000D03*
X129725000Y-105825000D03*
%TD*%
D36*
%TO.C,C4*%
X160475000Y-111500000D03*
X157525000Y-111500000D03*
%TD*%
D55*
%TO.C,D3*%
X188000000Y-74225000D03*
X192000000Y-74225000D03*
%TD*%
D37*
%TO.C,R28*%
X142000000Y-74675000D03*
X142000000Y-76325000D03*
%TD*%
D18*
%TO.C,JP18*%
X134181506Y-114575402D03*
D19*
X136721506Y-114575402D03*
X139261506Y-114575402D03*
%TD*%
D56*
%TO.C,TP1*%
X184500000Y-101500000D03*
%TD*%
D18*
%TO.C,JP8*%
X158000000Y-103500000D03*
D19*
X158000000Y-100960000D03*
X160540000Y-103500000D03*
X160540000Y-100960000D03*
X163080000Y-103500000D03*
X163080000Y-100960000D03*
%TD*%
D48*
%TO.C,R17*%
X143325000Y-62000000D03*
X141675000Y-62000000D03*
%TD*%
D57*
%TO.C,C8*%
X132725000Y-98000000D03*
X134275000Y-98000000D03*
%TD*%
D18*
%TO.C,JP14*%
X169460000Y-81500000D03*
D19*
X172000000Y-81500000D03*
X174540000Y-81500000D03*
%TD*%
D18*
%TO.C,JP11*%
X176540000Y-54725000D03*
D19*
X176540000Y-57265000D03*
X174000000Y-54725000D03*
X174000000Y-57265000D03*
X171460000Y-54725000D03*
X171460000Y-57265000D03*
%TD*%
D38*
%TO.C,H6*%
X150000000Y-90000000D03*
D39*
X150000000Y-90000000D03*
%TD*%
D18*
%TO.C,JP6*%
X154000000Y-120500000D03*
D19*
X156540000Y-120500000D03*
X154000000Y-123040000D03*
X156540000Y-123040000D03*
%TD*%
D18*
%TO.C,JP9*%
X154500000Y-81540000D03*
D19*
X154500000Y-79000000D03*
X154500000Y-76460000D03*
%TD*%
D18*
%TO.C,JP20*%
X132460000Y-81500000D03*
D19*
X135000000Y-81500000D03*
X137540000Y-81500000D03*
%TD*%
D30*
%TO.C,R25*%
X132900000Y-107500000D03*
X134550000Y-107500000D03*
%TD*%
D29*
%TO.C,C6*%
X191275000Y-65225000D03*
X189725000Y-65225000D03*
%TD*%
D32*
%TO.C,R22*%
X177500000Y-64462500D03*
X177500000Y-61537500D03*
%TD*%
%TO.C,R21*%
X174500000Y-64462500D03*
X174500000Y-61537500D03*
%TD*%
D58*
%TO.C,C12*%
X142000000Y-69275000D03*
X142000000Y-67725000D03*
%TD*%
D59*
%TO.C,D2*%
X171500000Y-113287500D03*
X171500000Y-111712500D03*
%TD*%
D38*
%TO.C,H5*%
X180000000Y-90000000D03*
D39*
X180000000Y-90000000D03*
%TD*%
D31*
%TO.C,C11*%
X140275000Y-94525000D03*
X140275000Y-97475000D03*
%TD*%
D60*
%TO.C,C7*%
X185000000Y-69975000D03*
X185000000Y-67025000D03*
%TD*%
D42*
%TO.C,J9*%
X130950000Y-75000000D03*
D43*
X130950000Y-73000000D03*
X130950000Y-71000000D03*
%TD*%
D30*
%TO.C,R2*%
X167175000Y-116000000D03*
X168825000Y-116000000D03*
%TD*%
D18*
%TO.C,JP16*%
X174500000Y-71775000D03*
D19*
X174500000Y-69235000D03*
%TD*%
D38*
%TO.C,H4*%
X130000000Y-55000000D03*
D39*
X130000000Y-55000000D03*
%TD*%
D18*
%TO.C,JP15*%
X200775000Y-61000000D03*
D19*
X198235000Y-61000000D03*
%TD*%
D37*
%TO.C,R5*%
X171500000Y-108175000D03*
X171500000Y-109825000D03*
%TD*%
D61*
%TO.C,C15*%
X132025000Y-95500000D03*
X134975000Y-95500000D03*
%TD*%
D62*
%TO.C,D5*%
X135850000Y-75000000D03*
X139150000Y-75000000D03*
%TD*%
D63*
%TO.C,D4*%
X139150000Y-71000000D03*
X135850000Y-71000000D03*
%TD*%
D33*
%TO.C,JP4*%
X183500000Y-112700000D03*
D34*
X183500000Y-114000000D03*
D35*
X183500000Y-115300000D03*
%TD*%
D40*
%TO.C,J3*%
X145500000Y-124450000D03*
D41*
X147500000Y-124450000D03*
%TD*%
D18*
%TO.C,JP21*%
X168000000Y-109725000D03*
D19*
X168000000Y-112265000D03*
%TD*%
D30*
%TO.C,R10*%
X200675000Y-104500000D03*
X202325000Y-104500000D03*
%TD*%
D64*
%TO.C,JP2*%
X180000000Y-118350000D03*
D65*
X180000000Y-119650000D03*
%TD*%
D66*
%TO.C,R3*%
X177000000Y-119825000D03*
X177000000Y-118175000D03*
%TD*%
D67*
%TO.C,L1*%
X184400000Y-78725000D03*
X178600000Y-78725000D03*
%TD*%
D42*
%TO.C,J8*%
X198964813Y-79491112D03*
D43*
X198964813Y-77491112D03*
X198964813Y-75491112D03*
%TD*%
D48*
%TO.C,R23*%
X144825000Y-114500000D03*
X143175000Y-114500000D03*
%TD*%
D38*
%TO.C,H3*%
X200000000Y-55000000D03*
D39*
X200000000Y-55000000D03*
%TD*%
M02*
